solid
  facet normal +0.0000000E+00 +1.0000000E-00 +0.0000000E+00
    outer loop      
      vertex   -4.3701602E-01 +7.5400000E+01 -2.3449970E+00
      vertex   -8.3125387E-01 +7.5400000E+01 -2.1441228E+00
      vertex   -1.1441228E+00 +7.5400000E+01 -1.8312538E+00
    endloop
  endfacet
  facet normal +0.0000000E+00 +1.0000000E+00 +0.0000000E+00
    outer loop      
      vertex   -1.1441228E+00 +7.5400000E+01 -1.8312538E+00
      vertex   -1.3449970E+00 +7.5400000E+01 -1.4370160E+00
      vertex   -4.3701602E-01 +7.5400000E+01 -2.3449970E+00
    endloop
  endfacet
  facet normal +0.0000000E+00 +1.0000000E+00 +0.0000000E+00
    outer loop      
      vertex   -1.4142135E+00 +7.5400000E+01 -1.0000000E+00
      vertex   +4.3701602E-01 +7.5400000E+01 -2.3449970E+00
      vertex   +0.0000000E+00 +7.5400000E+01 -2.4142135E+00
    endloop
  endfacet
  facet normal +0.0000000E+00 +1.0000000E+00 +0.0000000E+00
    outer loop      
      vertex   -4.3701602E-01 +7.5400000E+01 +3.4499702E-01
      vertex   +1.4142135E+00 +7.5400000E+01 -1.0000000E+00
      vertex   +1.3449970E+00 +7.5400000E+01 -1.4370160E+00
    endloop
  endfacet
  facet normal +0.0000000E+00 +1.0000000E+00 +0.0000000E+00
    outer loop      
      vertex   -4.3701602E-01 +7.5400000E+01 +3.4499702E-01
      vertex   +1.1441228E+00 +7.5400000E+01 -1.6874612E-01
      vertex   +1.3449970E+00 +7.5400000E+01 -5.6298397E-01
    endloop
  endfacet
  facet normal +0.0000000E+00 +1.0000000E+00 +0.0000000E+00
    outer loop      
      vertex   -4.3701602E-01 +7.5400000E+01 +3.4499702E-01
      vertex   +4.3701602E-01 +7.5400000E+01 +3.4499702E-01
      vertex   +8.3125387E-01 +7.5400000E+01 +1.4412280E-01
    endloop
  endfacet
  facet normal +0.0000000E+00 +1.0000000E+00 +0.0000000E+00
    outer loop      
      vertex   +0.0000000E+00 +7.5400000E+01 -2.4142135E+00
      vertex   -4.3701602E-01 +7.5400000E+01 -2.3449970E+00
      vertex   -1.4142135E+00 +7.5400000E+01 -1.0000000E+00
    endloop
  endfacet
  facet normal +0.0000000E+00 +1.0000000E+00 +0.0000000E+00
    outer loop      
      vertex   -1.4142135E+00 +7.5400000E+01 -1.0000000E+00
      vertex   +1.1441228E+00 +7.5400000E+01 -1.8312538E+00
      vertex   +8.3125387E-01 +7.5400000E+01 -2.1441228E+00
    endloop
  endfacet
  facet normal +0.0000000E+00 +1.0000000E+00 +0.0000000E+00
    outer loop      
      vertex   +1.3449970E+00 +7.5400000E+01 -5.6298397E-01
      vertex   +1.4142135E+00 +7.5400000E+01 -1.0000000E+00
      vertex   -4.3701602E-01 +7.5400000E+01 +3.4499702E-01
    endloop
  endfacet
  facet normal +0.0000000E+00 +1.0000000E+00 +0.0000000E+00
    outer loop      
      vertex   -4.3701602E-01 +7.5400000E+01 +3.4499702E-01
      vertex   +0.0000000E+00 +7.5400000E+01 +4.1421356E-01
      vertex   +4.3701602E-01 +7.5400000E+01 +3.4499702E-01
    endloop
  endfacet
  facet normal +0.0000000E+00 +1.0000000E+00 +0.0000000E+00
    outer loop      
      vertex   +1.1441228E+00 +7.5400000E+01 -1.8312538E+00
      vertex   -1.4142135E+00 +7.5400000E+01 -1.0000000E+00
      vertex   -1.3449970E+00 +7.5400000E+01 -5.6298397E-01
    endloop
  endfacet
  facet normal +0.0000000E+00 +1.0000000E+00 +0.0000000E+00
    outer loop      
      vertex   +8.3125387E-01 +7.5400000E+01 -2.1441228E+00
      vertex   +4.3701602E-01 +7.5400000E+01 -2.3449970E+00
      vertex   -1.4142135E+00 +7.5400000E+01 -1.0000000E+00
    endloop
  endfacet
  facet normal +0.0000000E+00 +1.0000000E+00 +0.0000000E+00
    outer loop      
      vertex   +8.3125387E-01 +7.5400000E+01 +1.4412280E-01
      vertex   +1.1441228E+00 +7.5400000E+01 -1.6874612E-01
      vertex   -4.3701602E-01 +7.5400000E+01 +3.4499702E-01
    endloop
  endfacet
  facet normal +0.0000000E+00 +1.0000000E+00 +0.0000000E+00
    outer loop      
      vertex   +1.1441228E+00 +7.5400000E+01 -1.8312538E+00
      vertex   -1.1441228E+00 +7.5400000E+01 -1.6874612E-01
      vertex   -8.3125387E-01 +7.5400000E+01 +1.4412280E-01
    endloop
  endfacet
  facet normal +0.0000000E+00 +1.0000000E+00 +0.0000000E+00
    outer loop      
      vertex   -1.3449970E+00 +7.5400000E+01 -1.4370160E+00
      vertex   -1.4142135E+00 +7.5400000E+01 -1.0000000E+00
      vertex   -4.3701602E-01 +7.5400000E+01 -2.3449970E+00
    endloop
  endfacet
  facet normal +0.0000000E+00 +1.0000000E+00 +0.0000000E+00
    outer loop      
      vertex   -8.3125387E-01 +7.5400000E+01 +1.4412280E-01
      vertex   -4.3701602E-01 +7.5400000E+01 +3.4499702E-01
      vertex   +1.1441228E+00 +7.5400000E+01 -1.8312538E+00
    endloop
  endfacet
  facet normal +0.0000000E+00 +1.0000000E+00 +0.0000000E+00
    outer loop      
      vertex   +1.3449970E+00 +7.5400000E+01 -1.4370160E+00
      vertex   +1.1441228E+00 +7.5400000E+01 -1.8312538E+00
      vertex   -4.3701602E-01 +7.5400000E+01 +3.4499702E-01
    endloop
  endfacet
  facet normal +0.0000000E+00 +1.0000000E+00 +0.0000000E+00
    outer loop      
      vertex   -1.3449970E+00 +7.5400000E+01 -5.6298397E-01
      vertex   -1.1441228E+00 +7.5400000E+01 -1.6874612E-01
      vertex   +1.1441228E+00 +7.5400000E+01 -1.8312538E+00
    endloop
  endfacet
  facet normal +1.5643446E-01 +0.0000000E+00 +9.8768834E-01
    outer loop      
      vertex   +4.3701602E-01 +4.7400000E+01 +3.4499702E-01
      vertex   +4.3701602E-01 +7.5400000E+01 +3.4499702E-01
      vertex   +0.0000000E+00 +7.5400000E+01 +4.1421356E-01
    endloop
  endfacet
  facet normal +4.5399049E-01 +0.0000000E+00 +8.9100652E-01
    outer loop      
      vertex   +8.3125387E-01 +4.7400000E+01 +1.4412280E-01
      vertex   +8.3125387E-01 +7.5400000E+01 +1.4412280E-01
      vertex   +4.3701602E-01 +7.5400000E+01 +3.4499702E-01
    endloop
  endfacet
  facet normal +7.0710678E-01 +0.0000000E+00 +7.0710678E-01
    outer loop      
      vertex   +1.1441228E+00 +4.7400000E+01 -1.6874612E-01
      vertex   +1.1441228E+00 +7.5400000E+01 -1.6874612E-01
      vertex   +8.3125387E-01 +7.5400000E+01 +1.4412280E-01
    endloop
  endfacet
  facet normal +8.9100652E-01 +0.0000000E+00 +4.5399049E-01
    outer loop      
      vertex   +1.3449970E+00 +4.7400000E+01 -5.6298397E-01
      vertex   +1.3449970E+00 +7.5400000E+01 -5.6298397E-01
      vertex   +1.1441228E+00 +7.5400000E+01 -1.6874612E-01
    endloop
  endfacet
  facet normal +9.8768834E-01 +0.0000000E+00 +1.5643446E-01
    outer loop      
      vertex   +1.4142135E+00 +4.7400000E+01 -1.0000000E+00
      vertex   +1.4142135E+00 +7.5400000E+01 -1.0000000E+00
      vertex   +1.3449970E+00 +7.5400000E+01 -5.6298397E-01
    endloop
  endfacet
  facet normal +9.8768834E-01 +0.0000000E+00 -1.5643446E-01
    outer loop      
      vertex   +1.3449970E+00 +4.7400000E+01 -1.4370160E+00
      vertex   +1.3449970E+00 +7.5400000E+01 -1.4370160E+00
      vertex   +1.4142135E+00 +7.5400000E+01 -1.0000000E+00
    endloop
  endfacet
  facet normal +8.9100652E-01 +0.0000000E+00 -4.5399049E-01
    outer loop      
      vertex   +1.1441228E+00 +4.7400000E+01 -1.8312538E+00
      vertex   +1.1441228E+00 +7.5400000E+01 -1.8312538E+00
      vertex   +1.3449970E+00 +7.5400000E+01 -1.4370160E+00
    endloop
  endfacet
  facet normal +7.0710678E-01 +0.0000000E+00 -7.0710678E-01
    outer loop      
      vertex   +8.3125387E-01 +4.7400000E+01 -2.1441228E+00
      vertex   +8.3125387E-01 +7.5400000E+01 -2.1441228E+00
      vertex   +1.1441228E+00 +7.5400000E+01 -1.8312538E+00
    endloop
  endfacet
  facet normal +4.5399049E-01 +0.0000000E+00 -8.9100652E-01
    outer loop      
      vertex   +4.3701602E-01 +4.7400000E+01 -2.3449970E+00
      vertex   +4.3701602E-01 +7.5400000E+01 -2.3449970E+00
      vertex   +8.3125387E-01 +7.5400000E+01 -2.1441228E+00
    endloop
  endfacet
  facet normal +1.5643446E-01 +0.0000000E+00 -9.8768834E-01
    outer loop      
      vertex   +0.0000000E+00 +4.7400000E+01 -2.4142135E+00
      vertex   +0.0000000E+00 +7.5400000E+01 -2.4142135E+00
      vertex   +4.3701602E-01 +7.5400000E+01 -2.3449970E+00
    endloop
  endfacet
  facet normal -1.5643446E-01 +0.0000000E+00 -9.8768834E-01
    outer loop      
      vertex   -4.3701602E-01 +4.7400000E+01 -2.3449970E+00
      vertex   -4.3701602E-01 +7.5400000E+01 -2.3449970E+00
      vertex   +0.0000000E+00 +7.5400000E+01 -2.4142135E+00
    endloop
  endfacet
  facet normal -4.5399049E-01 +0.0000000E+00 -8.9100652E-01
    outer loop      
      vertex   -8.3125387E-01 +4.7400000E+01 -2.1441228E+00
      vertex   -8.3125387E-01 +7.5400000E+01 -2.1441228E+00
      vertex   -4.3701602E-01 +7.5400000E+01 -2.3449970E+00
    endloop
  endfacet
  facet normal -7.0710678E-01 +0.0000000E+00 -7.0710678E-01
    outer loop      
      vertex   -1.1441228E+00 +4.7400000E+01 -1.8312538E+00
      vertex   -1.1441228E+00 +7.5400000E+01 -1.8312538E+00
      vertex   -8.3125387E-01 +7.5400000E+01 -2.1441228E+00
    endloop
  endfacet
  facet normal -8.9100652E-01 +0.0000000E+00 -4.5399049E-01
    outer loop      
      vertex   -1.3449970E+00 +4.7400000E+01 -1.4370160E+00
      vertex   -1.3449970E+00 +7.5400000E+01 -1.4370160E+00
      vertex   -1.1441228E+00 +7.5400000E+01 -1.8312538E+00
    endloop
  endfacet
  facet normal -9.8768834E-01 +0.0000000E+00 -1.5643446E-01
    outer loop      
      vertex   -1.4142135E+00 +4.7400000E+01 -1.0000000E+00
      vertex   -1.4142135E+00 +7.5400000E+01 -1.0000000E+00
      vertex   -1.3449970E+00 +7.5400000E+01 -1.4370160E+00
    endloop
  endfacet
  facet normal -9.8768834E-01 +0.0000000E+00 +1.5643446E-01
    outer loop      
      vertex   -1.3449970E+00 +4.7400000E+01 -5.6298397E-01
      vertex   -1.3449970E+00 +7.5400000E+01 -5.6298397E-01
      vertex   -1.4142135E+00 +7.5400000E+01 -1.0000000E+00
    endloop
  endfacet
  facet normal -8.9100652E-01 +0.0000000E+00 +4.5399049E-01
    outer loop      
      vertex   -1.1441228E+00 +4.7400000E+01 -1.6874612E-01
      vertex   -1.1441228E+00 +7.5400000E+01 -1.6874612E-01
      vertex   -1.3449970E+00 +7.5400000E+01 -5.6298397E-01
    endloop
  endfacet
  facet normal -7.0710678E-01 +0.0000000E+00 +7.0710678E-01
    outer loop      
      vertex   -8.3125387E-01 +4.7400000E+01 +1.4412280E-01
      vertex   -8.3125387E-01 +7.5400000E+01 +1.4412280E-01
      vertex   -1.1441228E+00 +7.5400000E+01 -1.6874612E-01
    endloop
  endfacet
  facet normal -4.5399049E-01 +0.0000000E+00 +8.9100652E-01
    outer loop      
      vertex   -4.3701602E-01 +4.7400000E+01 +3.4499702E-01
      vertex   -4.3701602E-01 +7.5400000E+01 +3.4499702E-01
      vertex   -8.3125387E-01 +7.5400000E+01 +1.4412280E-01
    endloop
  endfacet
  facet normal -1.5643446E-01 +0.0000000E+00 +9.8768834E-01
    outer loop      
      vertex   +0.0000000E+00 +4.7400000E+01 +4.1421356E-01
      vertex   +0.0000000E+00 +7.5400000E+01 +4.1421356E-01
      vertex   -4.3701602E-01 +7.5400000E+01 +3.4499702E-01
    endloop
  endfacet
  facet normal -1.5643446E-01 +0.0000000E+00 +9.8768834E-01
    outer loop      
      vertex   -4.3701602E-01 +7.5400000E+01 +3.4499702E-01
      vertex   -4.3701602E-01 +4.7400000E+01 +3.4499702E-01
      vertex   +0.0000000E+00 +4.7400000E+01 +4.1421356E-01
    endloop
  endfacet
  facet normal -4.5399049E-01 +0.0000000E+00 +8.9100652E-01
    outer loop      
      vertex   -8.3125387E-01 +7.5400000E+01 +1.4412280E-01
      vertex   -8.3125387E-01 +4.7400000E+01 +1.4412280E-01
      vertex   -4.3701602E-01 +4.7400000E+01 +3.4499702E-01
    endloop
  endfacet
  facet normal -7.0710678E-01 +0.0000000E+00 +7.0710678E-01
    outer loop      
      vertex   -1.1441228E+00 +7.5400000E+01 -1.6874612E-01
      vertex   -1.1441228E+00 +4.7400000E+01 -1.6874612E-01
      vertex   -8.3125387E-01 +4.7400000E+01 +1.4412280E-01
    endloop
  endfacet
  facet normal -8.9100652E-01 +0.0000000E+00 +4.5399049E-01
    outer loop      
      vertex   -1.3449970E+00 +7.5400000E+01 -5.6298397E-01
      vertex   -1.3449970E+00 +4.7400000E+01 -5.6298397E-01
      vertex   -1.1441228E+00 +4.7400000E+01 -1.6874612E-01
    endloop
  endfacet
  facet normal -9.8768834E-01 +0.0000000E+00 +1.5643446E-01
    outer loop      
      vertex   -1.4142135E+00 +7.5400000E+01 -1.0000000E+00
      vertex   -1.4142135E+00 +4.7400000E+01 -1.0000000E+00
      vertex   -1.3449970E+00 +4.7400000E+01 -5.6298397E-01
    endloop
  endfacet
  facet normal -9.8768834E-01 +0.0000000E+00 -1.5643446E-01
    outer loop      
      vertex   -1.3449970E+00 +7.5400000E+01 -1.4370160E+00
      vertex   -1.3449970E+00 +4.7400000E+01 -1.4370160E+00
      vertex   -1.4142135E+00 +4.7400000E+01 -1.0000000E+00
    endloop
  endfacet
  facet normal -8.9100652E-01 +0.0000000E+00 -4.5399049E-01
    outer loop      
      vertex   -1.1441228E+00 +7.5400000E+01 -1.8312538E+00
      vertex   -1.1441228E+00 +4.7400000E+01 -1.8312538E+00
      vertex   -1.3449970E+00 +4.7400000E+01 -1.4370160E+00
    endloop
  endfacet
  facet normal -7.0710678E-01 +0.0000000E+00 -7.0710678E-01
    outer loop      
      vertex   -8.3125387E-01 +7.5400000E+01 -2.1441228E+00
      vertex   -8.3125387E-01 +4.7400000E+01 -2.1441228E+00
      vertex   -1.1441228E+00 +4.7400000E+01 -1.8312538E+00
    endloop
  endfacet
  facet normal -4.5399049E-01 +0.0000000E+00 -8.9100652E-01
    outer loop      
      vertex   -4.3701602E-01 +7.5400000E+01 -2.3449970E+00
      vertex   -4.3701602E-01 +4.7400000E+01 -2.3449970E+00
      vertex   -8.3125387E-01 +4.7400000E+01 -2.1441228E+00
    endloop
  endfacet
  facet normal -1.5643446E-01 +0.0000000E+00 -9.8768834E-01
    outer loop      
      vertex   +0.0000000E+00 +7.5400000E+01 -2.4142135E+00
      vertex   +0.0000000E+00 +4.7400000E+01 -2.4142135E+00
      vertex   -4.3701602E-01 +4.7400000E+01 -2.3449970E+00
    endloop
  endfacet
  facet normal +1.5643446E-01 +0.0000000E+00 -9.8768834E-01
    outer loop      
      vertex   +4.3701602E-01 +7.5400000E+01 -2.3449970E+00
      vertex   +4.3701602E-01 +4.7400000E+01 -2.3449970E+00
      vertex   +0.0000000E+00 +4.7400000E+01 -2.4142135E+00
    endloop
  endfacet
  facet normal +4.5399049E-01 +0.0000000E+00 -8.9100652E-01
    outer loop      
      vertex   +8.3125387E-01 +7.5400000E+01 -2.1441228E+00
      vertex   +8.3125387E-01 +4.7400000E+01 -2.1441228E+00
      vertex   +4.3701602E-01 +4.7400000E+01 -2.3449970E+00
    endloop
  endfacet
  facet normal +7.0710678E-01 +0.0000000E+00 -7.0710678E-01
    outer loop      
      vertex   +1.1441228E+00 +7.5400000E+01 -1.8312538E+00
      vertex   +1.1441228E+00 +4.7400000E+01 -1.8312538E+00
      vertex   +8.3125387E-01 +4.7400000E+01 -2.1441228E+00
    endloop
  endfacet
  facet normal +8.9100652E-01 +0.0000000E+00 -4.5399049E-01
    outer loop      
      vertex   +1.3449970E+00 +7.5400000E+01 -1.4370160E+00
      vertex   +1.3449970E+00 +4.7400000E+01 -1.4370160E+00
      vertex   +1.1441228E+00 +4.7400000E+01 -1.8312538E+00
    endloop
  endfacet
  facet normal +9.8768834E-01 +0.0000000E+00 -1.5643446E-01
    outer loop      
      vertex   +1.4142135E+00 +7.5400000E+01 -1.0000000E+00
      vertex   +1.4142135E+00 +4.7400000E+01 -1.0000000E+00
      vertex   +1.3449970E+00 +4.7400000E+01 -1.4370160E+00
    endloop
  endfacet
  facet normal +9.8768834E-01 +0.0000000E+00 +1.5643446E-01
    outer loop      
      vertex   +1.3449970E+00 +7.5400000E+01 -5.6298397E-01
      vertex   +1.3449970E+00 +4.7400000E+01 -5.6298397E-01
      vertex   +1.4142135E+00 +4.7400000E+01 -1.0000000E+00
    endloop
  endfacet
  facet normal +8.9100652E-01 +0.0000000E+00 +4.5399049E-01
    outer loop      
      vertex   +1.1441228E+00 +7.5400000E+01 -1.6874612E-01
      vertex   +1.1441228E+00 +4.7400000E+01 -1.6874612E-01
      vertex   +1.3449970E+00 +4.7400000E+01 -5.6298397E-01
    endloop
  endfacet
  facet normal +7.0710678E-01 +0.0000000E+00 +7.0710678E-01
    outer loop      
      vertex   +8.3125387E-01 +7.5400000E+01 +1.4412280E-01
      vertex   +8.3125387E-01 +4.7400000E+01 +1.4412280E-01
      vertex   +1.1441228E+00 +4.7400000E+01 -1.6874612E-01
    endloop
  endfacet
  facet normal +4.5399049E-01 +0.0000000E+00 +8.9100652E-01
    outer loop      
      vertex   +4.3701602E-01 +7.5400000E+01 +3.4499702E-01
      vertex   +4.3701602E-01 +4.7400000E+01 +3.4499702E-01
      vertex   +8.3125387E-01 +4.7400000E+01 +1.4412280E-01
    endloop
  endfacet
  facet normal +1.5643446E-01 +0.0000000E+00 +9.8768834E-01
    outer loop      
      vertex   +0.0000000E+00 +7.5400000E+01 +4.1421356E-01
      vertex   +0.0000000E+00 +4.7400000E+01 +4.1421356E-01
      vertex   +4.3701602E-01 +4.7400000E+01 +3.4499702E-01
    endloop
  endfacet
  facet normal +2.6949255E-16 +1.0000000E+00 +1.7015089E-15
    outer loop      
      vertex   +1.7274575E+00 +4.7400000E+01 +4.3165675E+00
      vertex   +4.3701602E-01 +4.7400000E+01 +3.4499702E-01
      vertex   +0.0000000E+00 +4.7400000E+01 +4.1421356E-01
    endloop
  endfacet
  facet normal +7.8209784E-16 +1.0000000E+00 +1.5349534E-15
    outer loop      
      vertex   +1.7274575E+00 +4.7400000E+01 +4.3165675E+00
      vertex   +3.2858194E+00 +4.7400000E+01 +3.5225424E+00
      vertex   +8.3125387E-01 +4.7400000E+01 +1.4412280E-01
    endloop
  endfacet
  facet normal +7.8209784E-16 +1.0000000E-00 +1.5349534E-15
    outer loop      
      vertex   +8.3125387E-01 +4.7400000E+01 +1.4412280E-01
      vertex   +4.3701602E-01 +4.7400000E+01 +3.4499702E-01
      vertex   +1.7274575E+00 +4.7400000E+01 +4.3165675E+00
    endloop
  endfacet
  facet normal +1.2181459E-15 +1.0000000E+00 +1.2181459E-15
    outer loop      
      vertex   +3.2858194E+00 +4.7400000E+01 +3.5225424E+00
      vertex   +4.5225424E+00 +4.7400000E+01 +2.2858194E+00
      vertex   +1.1441228E+00 +4.7400000E+01 -1.6874612E-01
    endloop
  endfacet
  facet normal +1.5349534E-15 +1.0000000E+00 +7.8209784E-16
    outer loop      
      vertex   +5.3165675E+00 +4.7400000E+01 +7.2745751E-01
      vertex   +1.3449970E+00 +4.7400000E+01 -5.6298397E-01
      vertex   +1.1441228E+00 +4.7400000E+01 -1.6874612E-01
    endloop
  endfacet
  facet normal +1.7015089E-15 +1.0000000E-00 +2.6949255E-16
    outer loop      
      vertex   +5.3165675E+00 +4.7400000E+01 +7.2745751E-01
      vertex   +5.5901699E+00 +4.7400000E+01 -1.0000000E+00
      vertex   +1.4142135E+00 +4.7400000E+01 -1.0000000E+00
    endloop
  endfacet
  facet normal +1.7015089E-15 +1.0000000E+00 -2.6949255E-16
    outer loop      
      vertex   +5.3165675E+00 +4.7400000E+01 -2.7274575E+00
      vertex   +1.3449970E+00 +4.7400000E+01 -1.4370160E+00
      vertex   +1.4142135E+00 +4.7400000E+01 -1.0000000E+00
    endloop
  endfacet
  facet normal +1.5349534E-15 +1.0000000E+00 -7.8209784E-16
    outer loop      
      vertex   +5.3165675E+00 +4.7400000E+01 -2.7274575E+00
      vertex   +4.5225424E+00 +4.7400000E+01 -4.2858194E+00
      vertex   +1.1441228E+00 +4.7400000E+01 -1.8312538E+00
    endloop
  endfacet
  facet normal +1.2181459E-15 +1.0000000E+00 +1.2181459E-15
    outer loop      
      vertex   +1.1441228E+00 +4.7400000E+01 -1.6874612E-01
      vertex   +8.3125387E-01 +4.7400000E+01 +1.4412280E-01
      vertex   +3.2858194E+00 +4.7400000E+01 +3.5225424E+00
    endloop
  endfacet
  facet normal +1.7015089E-15 +1.0000000E+00 +2.6949255E-16
    outer loop      
      vertex   +1.4142135E+00 +4.7400000E+01 -1.0000000E+00
      vertex   +1.3449970E+00 +4.7400000E+01 -5.6298397E-01
      vertex   +5.3165675E+00 +4.7400000E+01 +7.2745751E-01
    endloop
  endfacet
  facet normal +1.5349534E-15 +1.0000000E+00 -7.8209784E-16
    outer loop      
      vertex   +1.1441228E+00 +4.7400000E+01 -1.8312538E+00
      vertex   +1.3449970E+00 +4.7400000E+01 -1.4370160E+00
      vertex   +5.3165675E+00 +4.7400000E+01 -2.7274575E+00
    endloop
  endfacet
  facet normal +1.2181459E-15 +1.0000000E+00 -1.2181459E-15
    outer loop      
      vertex   +4.5225424E+00 +4.7400000E+01 -4.2858194E+00
      vertex   +3.2858194E+00 +4.7400000E+01 -5.5225424E+00
      vertex   +8.3125387E-01 +4.7400000E+01 -2.1441228E+00
    endloop
  endfacet
  facet normal +7.8209784E-16 +1.0000000E+00 -1.5349534E-15
    outer loop      
      vertex   +1.7274575E+00 +4.7400000E+01 -6.3165675E+00
      vertex   +4.3701602E-01 +4.7400000E+01 -2.3449970E+00
      vertex   +8.3125387E-01 +4.7400000E+01 -2.1441228E+00
    endloop
  endfacet
  facet normal +2.6949255E-16 +1.0000000E+00 -1.7015089E-15
    outer loop      
      vertex   +0.0000000E+00 +4.7400000E+01 -6.5901699E+00
      vertex   +0.0000000E+00 +4.7400000E+01 -2.4142135E+00
      vertex   +4.3701602E-01 +4.7400000E+01 -2.3449970E+00
    endloop
  endfacet
  facet normal -2.6949255E-16 +1.0000000E-00 -1.7015089E-15
    outer loop      
      vertex   -1.7274575E+00 +4.7400000E+01 -6.3165675E+00
      vertex   -4.3701602E-01 +4.7400000E+01 -2.3449970E+00
      vertex   +0.0000000E+00 +4.7400000E+01 -2.4142135E+00
    endloop
  endfacet
  facet normal -7.8209784E-16 +1.0000000E+00 -1.5349534E-15
    outer loop      
      vertex   -1.7274575E+00 +4.7400000E+01 -6.3165675E+00
      vertex   -3.2858194E+00 +4.7400000E+01 -5.5225424E+00
      vertex   -8.3125387E-01 +4.7400000E+01 -2.1441228E+00
    endloop
  endfacet
  facet normal -1.2181459E-15 +1.0000000E+00 -1.2181459E-15
    outer loop      
      vertex   -4.5225424E+00 +4.7400000E+01 -4.2858194E+00
      vertex   -1.1441228E+00 +4.7400000E+01 -1.8312538E+00
      vertex   -8.3125387E-01 +4.7400000E+01 -2.1441228E+00
    endloop
  endfacet
  facet normal -1.5349534E-15 +1.0000000E+00 -7.8209784E-16
    outer loop      
      vertex   -5.3165675E+00 +4.7400000E+01 -2.7274575E+00
      vertex   -1.3449970E+00 +4.7400000E+01 -1.4370160E+00
      vertex   -1.1441228E+00 +4.7400000E+01 -1.8312538E+00
    endloop
  endfacet
  facet normal -1.7015089E-15 +1.0000000E+00 -2.6949255E-16
    outer loop      
      vertex   -5.5901699E+00 +4.7400000E+01 -1.0000000E+00
      vertex   -1.4142135E+00 +4.7400000E+01 -1.0000000E+00
      vertex   -1.3449970E+00 +4.7400000E+01 -1.4370160E+00
    endloop
  endfacet
  facet normal -1.7015089E-15 +1.0000000E+00 +2.6949255E-16
    outer loop      
      vertex   -5.5901699E+00 +4.7400000E+01 -1.0000000E+00
      vertex   -5.3165675E+00 +4.7400000E+01 +7.2745751E-01
      vertex   -1.3449970E+00 +4.7400000E+01 -5.6298397E-01
    endloop
  endfacet
  facet normal +1.5349534E-15 +1.0000000E+00 +7.8209784E-16
    outer loop      
      vertex   +1.1441228E+00 +4.7400000E+01 -1.6874612E-01
      vertex   +4.5225424E+00 +4.7400000E+01 +2.2858194E+00
      vertex   +5.3165675E+00 +4.7400000E+01 +7.2745751E-01
    endloop
  endfacet
  facet normal +1.2181459E-15 +1.0000000E+00 -1.2181459E-15
    outer loop      
      vertex   +8.3125387E-01 +4.7400000E+01 -2.1441228E+00
      vertex   +1.1441228E+00 +4.7400000E+01 -1.8312538E+00
      vertex   +4.5225424E+00 +4.7400000E+01 -4.2858194E+00
    endloop
  endfacet
  facet normal +2.6949255E-16 +1.0000000E+00 -1.7015089E-15
    outer loop      
      vertex   +4.3701602E-01 +4.7400000E+01 -2.3449970E+00
      vertex   +1.7274575E+00 +4.7400000E+01 -6.3165675E+00
      vertex   +0.0000000E+00 +4.7400000E+01 -6.5901699E+00
    endloop
  endfacet
  facet normal -7.8209784E-16 +1.0000000E+00 -1.5349534E-15
    outer loop      
      vertex   -8.3125387E-01 +4.7400000E+01 -2.1441228E+00
      vertex   -4.3701602E-01 +4.7400000E+01 -2.3449970E+00
      vertex   -1.7274575E+00 +4.7400000E+01 -6.3165675E+00
    endloop
  endfacet
  facet normal -1.5349534E-15 +1.0000000E+00 -7.8209784E-16
    outer loop      
      vertex   -1.1441228E+00 +4.7400000E+01 -1.8312538E+00
      vertex   -4.5225424E+00 +4.7400000E+01 -4.2858194E+00
      vertex   -5.3165675E+00 +4.7400000E+01 -2.7274575E+00
    endloop
  endfacet
  facet normal -1.7015089E-15 +1.0000000E+00 +2.6949255E-16
    outer loop      
      vertex   -1.3449970E+00 +4.7400000E+01 -5.6298397E-01
      vertex   -1.4142135E+00 +4.7400000E+01 -1.0000000E+00
      vertex   -5.5901699E+00 +4.7400000E+01 -1.0000000E+00
    endloop
  endfacet
  facet normal -1.5349534E-15 +1.0000000E-00 +7.8209784E-16
    outer loop      
      vertex   -5.3165675E+00 +4.7400000E+01 +7.2745751E-01
      vertex   -4.5225424E+00 +4.7400000E+01 +2.2858194E+00
      vertex   -1.1441228E+00 +4.7400000E+01 -1.6874612E-01
    endloop
  endfacet
  facet normal -1.2181459E-15 +1.0000000E+00 +1.2181459E-15
    outer loop      
      vertex   -4.5225424E+00 +4.7400000E+01 +2.2858194E+00
      vertex   -3.2858194E+00 +4.7400000E+01 +3.5225424E+00
      vertex   -8.3125387E-01 +4.7400000E+01 +1.4412280E-01
    endloop
  endfacet
  facet normal +1.7015089E-15 +1.0000000E+00 -2.6949255E-16
    outer loop      
      vertex   +1.4142135E+00 +4.7400000E+01 -1.0000000E+00
      vertex   +5.5901699E+00 +4.7400000E+01 -1.0000000E+00
      vertex   +5.3165675E+00 +4.7400000E+01 -2.7274575E+00
    endloop
  endfacet
  facet normal -2.6949255E-16 +1.0000000E+00 -1.7015089E-15
    outer loop      
      vertex   +0.0000000E+00 +4.7400000E+01 -2.4142135E+00
      vertex   +0.0000000E+00 +4.7400000E+01 -6.5901699E+00
      vertex   -1.7274575E+00 +4.7400000E+01 -6.3165675E+00
    endloop
  endfacet
  facet normal -1.7015089E-15 +1.0000000E+00 -2.6949255E-16
    outer loop      
      vertex   -1.3449970E+00 +4.7400000E+01 -1.4370160E+00
      vertex   -5.3165675E+00 +4.7400000E+01 -2.7274575E+00
      vertex   -5.5901699E+00 +4.7400000E+01 -1.0000000E+00
    endloop
  endfacet
  facet normal -1.2181459E-15 +1.0000000E+00 +1.2181459E-15
    outer loop      
      vertex   -8.3125387E-01 +4.7400000E+01 +1.4412280E-01
      vertex   -1.1441228E+00 +4.7400000E+01 -1.6874612E-01
      vertex   -4.5225424E+00 +4.7400000E+01 +2.2858194E+00
    endloop
  endfacet
  facet normal +7.8209784E-16 +1.0000000E+00 -1.5349534E-15
    outer loop      
      vertex   +8.3125387E-01 +4.7400000E+01 -2.1441228E+00
      vertex   +3.2858194E+00 +4.7400000E+01 -5.5225424E+00
      vertex   +1.7274575E+00 +4.7400000E+01 -6.3165675E+00
    endloop
  endfacet
  facet normal -1.5349534E-15 +1.0000000E+00 +7.8209784E-16
    outer loop      
      vertex   -1.1441228E+00 +4.7400000E+01 -1.6874612E-01
      vertex   -1.3449970E+00 +4.7400000E+01 -5.6298397E-01
      vertex   -5.3165675E+00 +4.7400000E+01 +7.2745751E-01
    endloop
  endfacet
  facet normal -7.8209784E-16 +1.0000000E+00 +1.5349534E-15
    outer loop      
      vertex   -1.7274575E+00 +4.7400000E+01 +4.3165675E+00
      vertex   -4.3701602E-01 +4.7400000E+01 +3.4499702E-01
      vertex   -8.3125387E-01 +4.7400000E+01 +1.4412280E-01
    endloop
  endfacet
  facet normal -2.6949255E-16 +1.0000000E-00 +1.7015089E-15
    outer loop      
      vertex   -1.7274575E+00 +4.7400000E+01 +4.3165675E+00
      vertex   +0.0000000E+00 +4.7400000E+01 +4.5901699E+00
      vertex   +0.0000000E+00 +4.7400000E+01 +4.1421356E-01
    endloop
  endfacet
  facet normal -1.2181459E-15 +1.0000000E+00 -1.2181459E-15
    outer loop      
      vertex   -8.3125387E-01 +4.7400000E+01 -2.1441228E+00
      vertex   -3.2858194E+00 +4.7400000E+01 -5.5225424E+00
      vertex   -4.5225424E+00 +4.7400000E+01 -4.2858194E+00
    endloop
  endfacet
  facet normal -2.6949255E-16 +1.0000000E+00 +1.7015089E-15
    outer loop      
      vertex   +0.0000000E+00 +4.7400000E+01 +4.1421356E-01
      vertex   -4.3701602E-01 +4.7400000E+01 +3.4499702E-01
      vertex   -1.7274575E+00 +4.7400000E+01 +4.3165675E+00
    endloop
  endfacet
  facet normal -7.8209784E-16 +1.0000000E+00 +1.5349534E-15
    outer loop      
      vertex   -8.3125387E-01 +4.7400000E+01 +1.4412280E-01
      vertex   -3.2858194E+00 +4.7400000E+01 +3.5225424E+00
      vertex   -1.7274575E+00 +4.7400000E+01 +4.3165675E+00
    endloop
  endfacet
  facet normal +2.6949255E-16 +1.0000000E-00 +1.7015089E-15
    outer loop      
      vertex   +0.0000000E+00 +4.7400000E+01 +4.1421356E-01
      vertex   +0.0000000E+00 +4.7400000E+01 +4.5901699E+00
      vertex   +1.7274575E+00 +4.7400000E+01 +4.3165675E+00
    endloop
  endfacet
  facet normal +1.5643446E-01 +0.0000000E+00 +9.8768834E-01
    outer loop      
      vertex   +1.7274575E+00 +4.2900000E+01 +4.3165675E+00
      vertex   +1.7274575E+00 +4.7400000E+01 +4.3165675E+00
      vertex   +0.0000000E+00 +4.7400000E+01 +4.5901699E+00
    endloop
  endfacet
  facet normal +4.5399049E-01 +0.0000000E+00 +8.9100652E-01
    outer loop      
      vertex   +3.2858194E+00 +4.2900000E+01 +3.5225424E+00
      vertex   +3.2858194E+00 +4.7400000E+01 +3.5225424E+00
      vertex   +1.7274575E+00 +4.7400000E+01 +4.3165675E+00
    endloop
  endfacet
  facet normal +7.0710678E-01 +0.0000000E+00 +7.0710678E-01
    outer loop      
      vertex   +4.5225424E+00 +4.2900000E+01 +2.2858194E+00
      vertex   +4.5225424E+00 +4.7400000E+01 +2.2858194E+00
      vertex   +3.2858194E+00 +4.7400000E+01 +3.5225424E+00
    endloop
  endfacet
  facet normal +8.9100652E-01 +0.0000000E+00 +4.5399049E-01
    outer loop      
      vertex   +5.3165675E+00 +4.2900000E+01 +7.2745751E-01
      vertex   +5.3165675E+00 +4.7400000E+01 +7.2745751E-01
      vertex   +4.5225424E+00 +4.7400000E+01 +2.2858194E+00
    endloop
  endfacet
  facet normal +9.8768834E-01 +0.0000000E+00 +1.5643446E-01
    outer loop      
      vertex   +5.5901699E+00 +4.2900000E+01 -1.0000000E+00
      vertex   +5.5901699E+00 +4.7400000E+01 -1.0000000E+00
      vertex   +5.3165675E+00 +4.7400000E+01 +7.2745751E-01
    endloop
  endfacet
  facet normal +9.8768834E-01 +0.0000000E+00 -1.5643446E-01
    outer loop      
      vertex   +5.3165675E+00 +4.2900000E+01 -2.7274575E+00
      vertex   +5.3165675E+00 +4.7400000E+01 -2.7274575E+00
      vertex   +5.5901699E+00 +4.7400000E+01 -1.0000000E+00
    endloop
  endfacet
  facet normal +8.9100652E-01 +0.0000000E+00 -4.5399049E-01
    outer loop      
      vertex   +4.5225424E+00 +4.2900000E+01 -4.2858194E+00
      vertex   +4.5225424E+00 +4.7400000E+01 -4.2858194E+00
      vertex   +5.3165675E+00 +4.7400000E+01 -2.7274575E+00
    endloop
  endfacet
  facet normal +7.0710678E-01 +0.0000000E+00 -7.0710678E-01
    outer loop      
      vertex   +3.2858194E+00 +4.2900000E+01 -5.5225424E+00
      vertex   +3.2858194E+00 +4.7400000E+01 -5.5225424E+00
      vertex   +4.5225424E+00 +4.7400000E+01 -4.2858194E+00
    endloop
  endfacet
  facet normal +4.5399049E-01 +0.0000000E+00 -8.9100652E-01
    outer loop      
      vertex   +1.7274575E+00 +4.2900000E+01 -6.3165675E+00
      vertex   +1.7274575E+00 +4.7400000E+01 -6.3165675E+00
      vertex   +3.2858194E+00 +4.7400000E+01 -5.5225424E+00
    endloop
  endfacet
  facet normal +1.5643446E-01 +0.0000000E+00 -9.8768834E-01
    outer loop      
      vertex   +0.0000000E+00 +4.2900000E+01 -6.5901699E+00
      vertex   +0.0000000E+00 +4.7400000E+01 -6.5901699E+00
      vertex   +1.7274575E+00 +4.7400000E+01 -6.3165675E+00
    endloop
  endfacet
  facet normal -1.5643446E-01 +0.0000000E+00 -9.8768834E-01
    outer loop      
      vertex   -1.7274575E+00 +4.2900000E+01 -6.3165675E+00
      vertex   -1.7274575E+00 +4.7400000E+01 -6.3165675E+00
      vertex   +0.0000000E+00 +4.7400000E+01 -6.5901699E+00
    endloop
  endfacet
  facet normal -4.5399049E-01 +0.0000000E+00 -8.9100652E-01
    outer loop      
      vertex   -3.2858194E+00 +4.2900000E+01 -5.5225424E+00
      vertex   -3.2858194E+00 +4.7400000E+01 -5.5225424E+00
      vertex   -1.7274575E+00 +4.7400000E+01 -6.3165675E+00
    endloop
  endfacet
  facet normal -7.0710678E-01 +0.0000000E+00 -7.0710678E-01
    outer loop      
      vertex   -4.5225424E+00 +4.2900000E+01 -4.2858194E+00
      vertex   -4.5225424E+00 +4.7400000E+01 -4.2858194E+00
      vertex   -3.2858194E+00 +4.7400000E+01 -5.5225424E+00
    endloop
  endfacet
  facet normal -8.9100652E-01 +0.0000000E+00 -4.5399049E-01
    outer loop      
      vertex   -5.3165675E+00 +4.2900000E+01 -2.7274575E+00
      vertex   -5.3165675E+00 +4.7400000E+01 -2.7274575E+00
      vertex   -4.5225424E+00 +4.7400000E+01 -4.2858194E+00
    endloop
  endfacet
  facet normal -9.8768834E-01 +0.0000000E+00 -1.5643446E-01
    outer loop      
      vertex   -5.5901699E+00 +4.2900000E+01 -1.0000000E+00
      vertex   -5.5901699E+00 +4.7400000E+01 -1.0000000E+00
      vertex   -5.3165675E+00 +4.7400000E+01 -2.7274575E+00
    endloop
  endfacet
  facet normal -9.8768834E-01 +0.0000000E+00 +1.5643446E-01
    outer loop      
      vertex   -5.3165675E+00 +4.2900000E+01 +7.2745751E-01
      vertex   -5.3165675E+00 +4.7400000E+01 +7.2745751E-01
      vertex   -5.5901699E+00 +4.7400000E+01 -1.0000000E+00
    endloop
  endfacet
  facet normal -8.9100652E-01 +0.0000000E+00 +4.5399049E-01
    outer loop      
      vertex   -4.5225424E+00 +4.2900000E+01 +2.2858194E+00
      vertex   -4.5225424E+00 +4.7400000E+01 +2.2858194E+00
      vertex   -5.3165675E+00 +4.7400000E+01 +7.2745751E-01
    endloop
  endfacet
  facet normal -7.0710678E-01 +0.0000000E+00 +7.0710678E-01
    outer loop      
      vertex   -3.2858194E+00 +4.2900000E+01 +3.5225424E+00
      vertex   -3.2858194E+00 +4.7400000E+01 +3.5225424E+00
      vertex   -4.5225424E+00 +4.7400000E+01 +2.2858194E+00
    endloop
  endfacet
  facet normal -4.5399049E-01 +0.0000000E+00 +8.9100652E-01
    outer loop      
      vertex   -1.7274575E+00 +4.2900000E+01 +4.3165675E+00
      vertex   -1.7274575E+00 +4.7400000E+01 +4.3165675E+00
      vertex   -3.2858194E+00 +4.7400000E+01 +3.5225424E+00
    endloop
  endfacet
  facet normal -1.5643446E-01 +0.0000000E+00 +9.8768834E-01
    outer loop      
      vertex   +0.0000000E+00 +4.2900000E+01 +4.5901699E+00
      vertex   +0.0000000E+00 +4.7400000E+01 +4.5901699E+00
      vertex   -1.7274575E+00 +4.7400000E+01 +4.3165675E+00
    endloop
  endfacet
  facet normal -1.5643446E-01 +0.0000000E+00 +9.8768834E-01
    outer loop      
      vertex   -1.7274575E+00 +4.7400000E+01 +4.3165675E+00
      vertex   -1.7274575E+00 +4.2900000E+01 +4.3165675E+00
      vertex   +0.0000000E+00 +4.2900000E+01 +4.5901699E+00
    endloop
  endfacet
  facet normal -4.5399049E-01 +0.0000000E+00 +8.9100652E-01
    outer loop      
      vertex   -3.2858194E+00 +4.7400000E+01 +3.5225424E+00
      vertex   -3.2858194E+00 +4.2900000E+01 +3.5225424E+00
      vertex   -1.7274575E+00 +4.2900000E+01 +4.3165675E+00
    endloop
  endfacet
  facet normal -7.0710678E-01 +0.0000000E+00 +7.0710678E-01
    outer loop      
      vertex   -4.5225424E+00 +4.7400000E+01 +2.2858194E+00
      vertex   -4.5225424E+00 +4.2900000E+01 +2.2858194E+00
      vertex   -3.2858194E+00 +4.2900000E+01 +3.5225424E+00
    endloop
  endfacet
  facet normal -8.9100652E-01 +0.0000000E+00 +4.5399049E-01
    outer loop      
      vertex   -5.3165675E+00 +4.7400000E+01 +7.2745751E-01
      vertex   -5.3165675E+00 +4.2900000E+01 +7.2745751E-01
      vertex   -4.5225424E+00 +4.2900000E+01 +2.2858194E+00
    endloop
  endfacet
  facet normal -9.8768834E-01 +0.0000000E+00 +1.5643446E-01
    outer loop      
      vertex   -5.5901699E+00 +4.7400000E+01 -1.0000000E+00
      vertex   -5.5901699E+00 +4.2900000E+01 -1.0000000E+00
      vertex   -5.3165675E+00 +4.2900000E+01 +7.2745751E-01
    endloop
  endfacet
  facet normal -9.8768834E-01 +0.0000000E+00 -1.5643446E-01
    outer loop      
      vertex   -5.3165675E+00 +4.7400000E+01 -2.7274575E+00
      vertex   -5.3165675E+00 +4.2900000E+01 -2.7274575E+00
      vertex   -5.5901699E+00 +4.2900000E+01 -1.0000000E+00
    endloop
  endfacet
  facet normal -8.9100652E-01 +0.0000000E+00 -4.5399049E-01
    outer loop      
      vertex   -4.5225424E+00 +4.7400000E+01 -4.2858194E+00
      vertex   -4.5225424E+00 +4.2900000E+01 -4.2858194E+00
      vertex   -5.3165675E+00 +4.2900000E+01 -2.7274575E+00
    endloop
  endfacet
  facet normal -7.0710678E-01 +0.0000000E+00 -7.0710678E-01
    outer loop      
      vertex   -3.2858194E+00 +4.7400000E+01 -5.5225424E+00
      vertex   -3.2858194E+00 +4.2900000E+01 -5.5225424E+00
      vertex   -4.5225424E+00 +4.2900000E+01 -4.2858194E+00
    endloop
  endfacet
  facet normal -4.5399049E-01 +0.0000000E+00 -8.9100652E-01
    outer loop      
      vertex   -1.7274575E+00 +4.7400000E+01 -6.3165675E+00
      vertex   -1.7274575E+00 +4.2900000E+01 -6.3165675E+00
      vertex   -3.2858194E+00 +4.2900000E+01 -5.5225424E+00
    endloop
  endfacet
  facet normal -1.5643446E-01 +0.0000000E+00 -9.8768834E-01
    outer loop      
      vertex   +0.0000000E+00 +4.7400000E+01 -6.5901699E+00
      vertex   +0.0000000E+00 +4.2900000E+01 -6.5901699E+00
      vertex   -1.7274575E+00 +4.2900000E+01 -6.3165675E+00
    endloop
  endfacet
  facet normal +1.5643446E-01 +0.0000000E+00 -9.8768834E-01
    outer loop      
      vertex   +1.7274575E+00 +4.7400000E+01 -6.3165675E+00
      vertex   +1.7274575E+00 +4.2900000E+01 -6.3165675E+00
      vertex   +0.0000000E+00 +4.2900000E+01 -6.5901699E+00
    endloop
  endfacet
  facet normal +4.5399049E-01 +0.0000000E+00 -8.9100652E-01
    outer loop      
      vertex   +3.2858194E+00 +4.7400000E+01 -5.5225424E+00
      vertex   +3.2858194E+00 +4.2900000E+01 -5.5225424E+00
      vertex   +1.7274575E+00 +4.2900000E+01 -6.3165675E+00
    endloop
  endfacet
  facet normal +7.0710678E-01 +0.0000000E+00 -7.0710678E-01
    outer loop      
      vertex   +4.5225424E+00 +4.7400000E+01 -4.2858194E+00
      vertex   +4.5225424E+00 +4.2900000E+01 -4.2858194E+00
      vertex   +3.2858194E+00 +4.2900000E+01 -5.5225424E+00
    endloop
  endfacet
  facet normal +8.9100652E-01 +0.0000000E+00 -4.5399049E-01
    outer loop      
      vertex   +5.3165675E+00 +4.7400000E+01 -2.7274575E+00
      vertex   +5.3165675E+00 +4.2900000E+01 -2.7274575E+00
      vertex   +4.5225424E+00 +4.2900000E+01 -4.2858194E+00
    endloop
  endfacet
  facet normal +9.8768834E-01 +0.0000000E+00 -1.5643446E-01
    outer loop      
      vertex   +5.5901699E+00 +4.7400000E+01 -1.0000000E+00
      vertex   +5.5901699E+00 +4.2900000E+01 -1.0000000E+00
      vertex   +5.3165675E+00 +4.2900000E+01 -2.7274575E+00
    endloop
  endfacet
  facet normal +9.8768834E-01 +0.0000000E+00 +1.5643446E-01
    outer loop      
      vertex   +5.3165675E+00 +4.7400000E+01 +7.2745751E-01
      vertex   +5.3165675E+00 +4.2900000E+01 +7.2745751E-01
      vertex   +5.5901699E+00 +4.2900000E+01 -1.0000000E+00
    endloop
  endfacet
  facet normal +8.9100652E-01 +0.0000000E+00 +4.5399049E-01
    outer loop      
      vertex   +4.5225424E+00 +4.7400000E+01 +2.2858194E+00
      vertex   +4.5225424E+00 +4.2900000E+01 +2.2858194E+00
      vertex   +5.3165675E+00 +4.2900000E+01 +7.2745751E-01
    endloop
  endfacet
  facet normal +7.0710678E-01 +0.0000000E+00 +7.0710678E-01
    outer loop      
      vertex   +3.2858194E+00 +4.7400000E+01 +3.5225424E+00
      vertex   +3.2858194E+00 +4.2900000E+01 +3.5225424E+00
      vertex   +4.5225424E+00 +4.2900000E+01 +2.2858194E+00
    endloop
  endfacet
  facet normal +4.5399049E-01 +0.0000000E+00 +8.9100652E-01
    outer loop      
      vertex   +1.7274575E+00 +4.7400000E+01 +4.3165675E+00
      vertex   +1.7274575E+00 +4.2900000E+01 +4.3165675E+00
      vertex   +3.2858194E+00 +4.2900000E+01 +3.5225424E+00
    endloop
  endfacet
  facet normal +1.5643446E-01 +0.0000000E+00 +9.8768834E-01
    outer loop      
      vertex   +0.0000000E+00 +4.7400000E+01 +4.5901699E+00
      vertex   +0.0000000E+00 +4.2900000E+01 +4.5901699E+00
      vertex   +1.7274575E+00 +4.2900000E+01 +4.3165675E+00
    endloop
  endfacet
  facet normal +0.0000000E+00 -1.0000000E+00 +0.0000000E+00
    outer loop      
      vertex   +4.5225424E+00 +4.2900000E+01 -4.2858194E+00
      vertex   +1.5154153E+00 +4.2900000E+01 -2.1010137E+00
      vertex   +1.1010137E+00 +4.2900000E+01 -2.5154153E+00
    endloop
  endfacet
  facet normal +0.0000000E+00 -1.0000000E+00 +0.0000000E+00
    outer loop      
      vertex   +4.5225424E+00 +4.2900000E+01 -4.2858194E+00
      vertex   +5.3165675E+00 +4.2900000E+01 -2.7274575E+00
      vertex   +1.7814776E+00 +4.2900000E+01 -1.5788371E+00
    endloop
  endfacet
  facet normal +0.0000000E+00 -1.0000000E+00 +0.0000000E+00
    outer loop      
      vertex   -1.7274575E+00 +4.2900000E+01 +4.3165675E+00
      vertex   -5.7883716E-01 +4.2900000E+01 +7.8147760E-01
      vertex   +0.0000000E+00 +4.2900000E+01 +8.7315640E-01
    endloop
  endfacet
  facet normal +0.0000000E+00 -1.0000000E+00 +0.0000000E+00
    outer loop      
      vertex   -1.7274575E+00 +4.2900000E+01 +4.3165675E+00
      vertex   -3.2858194E+00 +4.2900000E+01 +3.5225424E+00
      vertex   -1.1010137E+00 +4.2900000E+01 +5.1541536E-01
    endloop
  endfacet
  facet normal +0.0000000E+00 -1.0000000E+00 +0.0000000E+00
    outer loop      
      vertex   +1.7814776E+00 +4.2900000E+01 -1.5788371E+00
      vertex   +1.5154153E+00 +4.2900000E+01 -2.1010137E+00
      vertex   +4.5225424E+00 +4.2900000E+01 -4.2858194E+00
    endloop
  endfacet
  facet normal +0.0000000E+00 -1.0000000E+00 +0.0000000E+00
    outer loop      
      vertex   +5.5901699E+00 +4.2900000E+01 -1.0000000E+00
      vertex   +1.8731564E+00 +4.2900000E+01 -1.0000000E+00
      vertex   +1.7814776E+00 +4.2900000E+01 -1.5788371E+00
    endloop
  endfacet
  facet normal +0.0000000E+00 -1.0000000E+00 +0.0000000E+00
    outer loop      
      vertex   -1.1010137E+00 +4.2900000E+01 +5.1541536E-01
      vertex   -5.7883716E-01 +4.2900000E+01 +7.8147760E-01
      vertex   -1.7274575E+00 +4.2900000E+01 +4.3165675E+00
    endloop
  endfacet
  facet normal +0.0000000E+00 -1.0000000E+00 +0.0000000E+00
    outer loop      
      vertex   -3.2858194E+00 +4.2900000E+01 +3.5225424E+00
      vertex   -4.5225424E+00 +4.2900000E+01 +2.2858194E+00
      vertex   -1.5154153E+00 +4.2900000E+01 +1.0101371E-01
    endloop
  endfacet
  facet normal +0.0000000E+00 -1.0000000E+00 +0.0000000E+00
    outer loop      
      vertex   -5.3165675E+00 +4.2900000E+01 +7.2745751E-01
      vertex   -1.7814776E+00 +4.2900000E+01 -4.2116283E-01
      vertex   -1.5154153E+00 +4.2900000E+01 +1.0101371E-01
    endloop
  endfacet
  facet normal +0.0000000E+00 -1.0000000E+00 +0.0000000E+00
    outer loop      
      vertex   -5.3165675E+00 +4.2900000E+01 +7.2745751E-01
      vertex   -5.5901699E+00 +4.2900000E+01 -1.0000000E+00
      vertex   -1.8731564E+00 +4.2900000E+01 -1.0000000E+00
    endloop
  endfacet
  facet normal +0.0000000E+00 -1.0000000E+00 +0.0000000E+00
    outer loop      
      vertex   -5.3165675E+00 +4.2900000E+01 -2.7274575E+00
      vertex   -1.7814776E+00 +4.2900000E+01 -1.5788371E+00
      vertex   -1.8731564E+00 +4.2900000E+01 -1.0000000E+00
    endloop
  endfacet
  facet normal +0.0000000E+00 -1.0000000E+00 +0.0000000E+00
    outer loop      
      vertex   -5.3165675E+00 +4.2900000E+01 -2.7274575E+00
      vertex   -4.5225424E+00 +4.2900000E+01 -4.2858194E+00
      vertex   -1.5154153E+00 +4.2900000E+01 -2.1010137E+00
    endloop
  endfacet
  facet normal +0.0000000E+00 -1.0000000E+00 +0.0000000E+00
    outer loop      
      vertex   +1.7814776E+00 +4.2900000E+01 -1.5788371E+00
      vertex   +5.3165675E+00 +4.2900000E+01 -2.7274575E+00
      vertex   +5.5901699E+00 +4.2900000E+01 -1.0000000E+00
    endloop
  endfacet
  facet normal +0.0000000E+00 -1.0000000E+00 +0.0000000E+00
    outer loop      
      vertex   +5.5901699E+00 +4.2900000E+01 -1.0000000E+00
      vertex   +5.3165675E+00 +4.2900000E+01 +7.2745751E-01
      vertex   +1.7814776E+00 +4.2900000E+01 -4.2116283E-01
    endloop
  endfacet
  facet normal +0.0000000E+00 -1.0000000E+00 +0.0000000E+00
    outer loop      
      vertex   +4.5225424E+00 +4.2900000E+01 +2.2858194E+00
      vertex   +1.5154153E+00 +4.2900000E+01 +1.0101371E-01
      vertex   +1.7814776E+00 +4.2900000E+01 -4.2116283E-01
    endloop
  endfacet
  facet normal +0.0000000E+00 -1.0000000E+00 +0.0000000E+00
    outer loop      
      vertex   +4.5225424E+00 +4.2900000E+01 +2.2858194E+00
      vertex   +3.2858194E+00 +4.2900000E+01 +3.5225424E+00
      vertex   +1.1010137E+00 +4.2900000E+01 +5.1541536E-01
    endloop
  endfacet
  facet normal +0.0000000E+00 -1.0000000E+00 +0.0000000E+00
    outer loop      
      vertex   -1.5154153E+00 +4.2900000E+01 +1.0101371E-01
      vertex   -1.1010137E+00 +4.2900000E+01 +5.1541536E-01
      vertex   -3.2858194E+00 +4.2900000E+01 +3.5225424E+00
    endloop
  endfacet
  facet normal +0.0000000E+00 -1.0000000E+00 +0.0000000E+00
    outer loop      
      vertex   -1.8731564E+00 +4.2900000E+01 -1.0000000E+00
      vertex   -1.7814776E+00 +4.2900000E+01 -4.2116283E-01
      vertex   -5.3165675E+00 +4.2900000E+01 +7.2745751E-01
    endloop
  endfacet
  facet normal +0.0000000E+00 -1.0000000E+00 +0.0000000E+00
    outer loop      
      vertex   -1.5154153E+00 +4.2900000E+01 -2.1010137E+00
      vertex   -1.7814776E+00 +4.2900000E+01 -1.5788371E+00
      vertex   -5.3165675E+00 +4.2900000E+01 -2.7274575E+00
    endloop
  endfacet
  facet normal +0.0000000E+00 -1.0000000E-00 +0.0000000E+00
    outer loop      
      vertex   -4.5225424E+00 +4.2900000E+01 -4.2858194E+00
      vertex   -3.2858194E+00 +4.2900000E+01 -5.5225424E+00
      vertex   -1.1010137E+00 +4.2900000E+01 -2.5154153E+00
    endloop
  endfacet
  facet normal +0.0000000E+00 -1.0000000E+00 +0.0000000E+00
    outer loop      
      vertex   +1.7814776E+00 +4.2900000E+01 -4.2116283E-01
      vertex   +1.8731564E+00 +4.2900000E+01 -1.0000000E+00
      vertex   +5.5901699E+00 +4.2900000E+01 -1.0000000E+00
    endloop
  endfacet
  facet normal +0.0000000E+00 -1.0000000E+00 +0.0000000E+00
    outer loop      
      vertex   +1.1010137E+00 +4.2900000E+01 +5.1541536E-01
      vertex   +1.5154153E+00 +4.2900000E+01 +1.0101371E-01
      vertex   +4.5225424E+00 +4.2900000E+01 +2.2858194E+00
    endloop
  endfacet
  facet normal +0.0000000E+00 -1.0000000E+00 +0.0000000E+00
    outer loop      
      vertex   +1.7274575E+00 +4.2900000E+01 +4.3165675E+00
      vertex   +5.7883716E-01 +4.2900000E+01 +7.8147760E-01
      vertex   +1.1010137E+00 +4.2900000E+01 +5.1541536E-01
    endloop
  endfacet
  facet normal +0.0000000E+00 -1.0000000E+00 +0.0000000E+00
    outer loop      
      vertex   +1.7274575E+00 +4.2900000E+01 +4.3165675E+00
      vertex   +0.0000000E+00 +4.2900000E+01 +4.5901699E+00
      vertex   +0.0000000E+00 +4.2900000E+01 +8.7315640E-01
    endloop
  endfacet
  facet normal +0.0000000E+00 -1.0000000E-00 +0.0000000E+00
    outer loop      
      vertex   -1.5154153E+00 +4.2900000E+01 +1.0101371E-01
      vertex   -4.5225424E+00 +4.2900000E+01 +2.2858194E+00
      vertex   -5.3165675E+00 +4.2900000E+01 +7.2745751E-01
    endloop
  endfacet
  facet normal +0.0000000E+00 -1.0000000E+00 +0.0000000E+00
    outer loop      
      vertex   -1.1010137E+00 +4.2900000E+01 -2.5154153E+00
      vertex   -1.5154153E+00 +4.2900000E+01 -2.1010137E+00
      vertex   -4.5225424E+00 +4.2900000E+01 -4.2858194E+00
    endloop
  endfacet
  facet normal +0.0000000E+00 -1.0000000E+00 +0.0000000E+00
    outer loop      
      vertex   +0.0000000E+00 +4.2900000E+01 -6.5901699E+00
      vertex   +1.7274575E+00 +4.2900000E+01 -6.3165675E+00
      vertex   +5.7883716E-01 +4.2900000E+01 -2.7814776E+00
    endloop
  endfacet
  facet normal +0.0000000E+00 -1.0000000E-00 +0.0000000E+00
    outer loop      
      vertex   +1.7274575E+00 +4.2900000E+01 -6.3165675E+00
      vertex   +3.2858194E+00 +4.2900000E+01 -5.5225424E+00
      vertex   +1.1010137E+00 +4.2900000E+01 -2.5154153E+00
    endloop
  endfacet
  facet normal +0.0000000E+00 -1.0000000E-00 +0.0000000E+00
    outer loop      
      vertex   +1.7814776E+00 +4.2900000E+01 -4.2116283E-01
      vertex   +5.3165675E+00 +4.2900000E+01 +7.2745751E-01
      vertex   +4.5225424E+00 +4.2900000E+01 +2.2858194E+00
    endloop
  endfacet
  facet normal +0.0000000E+00 -1.0000000E+00 +0.0000000E+00
    outer loop      
      vertex   +0.0000000E+00 +4.2900000E+01 +8.7315640E-01
      vertex   +5.7883716E-01 +4.2900000E+01 +7.8147760E-01
      vertex   +1.7274575E+00 +4.2900000E+01 +4.3165675E+00
    endloop
  endfacet
  facet normal +0.0000000E+00 -1.0000000E+00 +0.0000000E+00
    outer loop      
      vertex   -1.8731564E+00 +4.2900000E+01 -1.0000000E+00
      vertex   -5.5901699E+00 +4.2900000E+01 -1.0000000E+00
      vertex   -5.3165675E+00 +4.2900000E+01 -2.7274575E+00
    endloop
  endfacet
  facet normal +0.0000000E+00 -1.0000000E+00 +0.0000000E+00
    outer loop      
      vertex   -3.2858194E+00 +4.2900000E+01 -5.5225424E+00
      vertex   -1.7274575E+00 +4.2900000E+01 -6.3165675E+00
      vertex   -5.7883716E-01 +4.2900000E+01 -2.7814776E+00
    endloop
  endfacet
  facet normal +0.0000000E+00 -1.0000000E+00 +0.0000000E+00
    outer loop      
      vertex   +1.1010137E+00 +4.2900000E+01 -2.5154153E+00
      vertex   +5.7883716E-01 +4.2900000E+01 -2.7814776E+00
      vertex   +1.7274575E+00 +4.2900000E+01 -6.3165675E+00
    endloop
  endfacet
  facet normal +0.0000000E+00 -1.0000000E+00 +0.0000000E+00
    outer loop      
      vertex   +1.1010137E+00 +4.2900000E+01 +5.1541536E-01
      vertex   +3.2858194E+00 +4.2900000E+01 +3.5225424E+00
      vertex   +1.7274575E+00 +4.2900000E+01 +4.3165675E+00
    endloop
  endfacet
  facet normal +0.0000000E+00 -1.0000000E+00 +0.0000000E+00
    outer loop      
      vertex   -5.7883716E-01 +4.2900000E+01 -2.7814776E+00
      vertex   -1.1010137E+00 +4.2900000E+01 -2.5154153E+00
      vertex   -3.2858194E+00 +4.2900000E+01 -5.5225424E+00
    endloop
  endfacet
  facet normal +0.0000000E+00 -1.0000000E+00 +0.0000000E+00
    outer loop      
      vertex   +0.0000000E+00 +4.2900000E+01 -6.5901699E+00
      vertex   +0.0000000E+00 +4.2900000E+01 -2.8731564E+00
      vertex   -5.7883716E-01 +4.2900000E+01 -2.7814776E+00
    endloop
  endfacet
  facet normal +0.0000000E+00 -1.0000000E-00 +0.0000000E+00
    outer loop      
      vertex   +1.1010137E+00 +4.2900000E+01 -2.5154153E+00
      vertex   +3.2858194E+00 +4.2900000E+01 -5.5225424E+00
      vertex   +4.5225424E+00 +4.2900000E+01 -4.2858194E+00
    endloop
  endfacet
  facet normal +0.0000000E+00 -1.0000000E-00 +0.0000000E+00
    outer loop      
      vertex   -5.7883716E-01 +4.2900000E+01 -2.7814776E+00
      vertex   -1.7274575E+00 +4.2900000E+01 -6.3165675E+00
      vertex   +0.0000000E+00 +4.2900000E+01 -6.5901699E+00
    endloop
  endfacet
  facet normal +0.0000000E+00 -1.0000000E+00 +0.0000000E+00
    outer loop      
      vertex   +0.0000000E+00 +4.2900000E+01 +8.7315640E-01
      vertex   +0.0000000E+00 +4.2900000E+01 +4.5901699E+00
      vertex   -1.7274575E+00 +4.2900000E+01 +4.3165675E+00
    endloop
  endfacet
  facet normal +0.0000000E+00 -1.0000000E+00 +0.0000000E+00
    outer loop      
      vertex   +5.7883716E-01 +4.2900000E+01 -2.7814776E+00
      vertex   +0.0000000E+00 +4.2900000E+01 -2.8731564E+00
      vertex   +0.0000000E+00 +4.2900000E+01 -6.5901699E+00
    endloop
  endfacet
  facet normal +1.5643446E-01 +0.0000000E+00 +9.8768834E-01
    outer loop      
      vertex   +5.7883716E-01 +4.0000000E+01 +7.8147760E-01
      vertex   +5.7883716E-01 +4.2900000E+01 +7.8147760E-01
      vertex   +0.0000000E+00 +4.2900000E+01 +8.7315640E-01
    endloop
  endfacet
  facet normal +4.5399049E-01 +0.0000000E+00 +8.9100652E-01
    outer loop      
      vertex   +1.1010137E+00 +4.0000000E+01 +5.1541536E-01
      vertex   +1.1010137E+00 +4.2900000E+01 +5.1541536E-01
      vertex   +5.7883716E-01 +4.2900000E+01 +7.8147760E-01
    endloop
  endfacet
  facet normal +7.0710678E-01 +0.0000000E+00 +7.0710678E-01
    outer loop      
      vertex   +1.5154153E+00 +4.0000000E+01 +1.0101371E-01
      vertex   +1.5154153E+00 +4.2900000E+01 +1.0101371E-01
      vertex   +1.1010137E+00 +4.2900000E+01 +5.1541536E-01
    endloop
  endfacet
  facet normal +8.9099435E-01 +5.2255008E-03 +4.5398430E-01
    outer loop      
      vertex   +1.7814776E+00 +4.2900000E+01 -4.2116283E-01
      vertex   +1.5154153E+00 +4.2900000E+01 +1.0101371E-01
      vertex   +1.5838923E+00 +4.0000000E+01 +0.0000000E+00
    endloop
  endfacet
  facet normal +8.2773477E-01 +0.0000000E+00 +5.6111954E-01
    outer loop      
      vertex   +1.5154153E+00 +4.2900000E+01 +1.0101371E-01
      vertex   +1.5154153E+00 +4.0000000E+01 +1.0101371E-01
      vertex   +1.5838923E+00 +4.0000000E+01 +0.0000000E+00
    endloop
  endfacet
  facet normal +9.8768834E-01 +0.0000000E+00 +1.5643446E-01
    outer loop      
      vertex   +1.8731564E+00 +4.0000000E+01 -1.0000000E+00
      vertex   +1.8731564E+00 +4.2900000E+01 -1.0000000E+00
      vertex   +1.7814776E+00 +4.2900000E+01 -4.2116283E-01
    endloop
  endfacet
  facet normal +9.8768834E-01 +0.0000000E+00 -1.5643446E-01
    outer loop      
      vertex   +1.7814776E+00 +4.0000000E+01 -1.5788371E+00
      vertex   +1.7814776E+00 +4.2900000E+01 -1.5788371E+00
      vertex   +1.8731564E+00 +4.2900000E+01 -1.0000000E+00
    endloop
  endfacet
  facet normal +9.0532242E-01 +0.0000000E+00 -4.2472498E-01
    outer loop      
      vertex   +1.7814776E+00 +4.2900000E+01 -1.5788371E+00
      vertex   +1.7814776E+00 +4.0000000E+01 -1.5788371E+00
      vertex   +1.5838923E+00 +4.0000000E+01 -2.0000000E+00
    endloop
  endfacet
  facet normal +8.9099435E-01 +5.2255008E-03 -4.5398430E-01
    outer loop      
      vertex   +1.5838923E+00 +4.0000000E+01 -2.0000000E+00
      vertex   +1.5154153E+00 +4.2900000E+01 -2.1010137E+00
      vertex   +1.7814776E+00 +4.2900000E+01 -1.5788371E+00
    endloop
  endfacet
  facet normal +7.0710678E-01 +0.0000000E+00 -7.0710678E-01
    outer loop      
      vertex   +1.1010137E+00 +4.0000000E+01 -2.5154153E+00
      vertex   +1.1010137E+00 +4.2900000E+01 -2.5154153E+00
      vertex   +1.5154153E+00 +4.2900000E+01 -2.1010137E+00
    endloop
  endfacet
  facet normal +4.5399049E-01 +0.0000000E+00 -8.9100652E-01
    outer loop      
      vertex   +5.7883716E-01 +4.0000000E+01 -2.7814776E+00
      vertex   +5.7883716E-01 +4.2900000E+01 -2.7814776E+00
      vertex   +1.1010137E+00 +4.2900000E+01 -2.5154153E+00
    endloop
  endfacet
  facet normal +1.5643446E-01 +0.0000000E+00 -9.8768834E-01
    outer loop      
      vertex   +0.0000000E+00 +4.0000000E+01 -2.8731564E+00
      vertex   +0.0000000E+00 +4.2900000E+01 -2.8731564E+00
      vertex   +5.7883716E-01 +4.2900000E+01 -2.7814776E+00
    endloop
  endfacet
  facet normal -1.5643446E-01 +0.0000000E+00 -9.8768834E-01
    outer loop      
      vertex   -5.7883716E-01 +4.0000000E+01 -2.7814776E+00
      vertex   -5.7883716E-01 +4.2900000E+01 -2.7814776E+00
      vertex   +0.0000000E+00 +4.2900000E+01 -2.8731564E+00
    endloop
  endfacet
  facet normal -4.5399049E-01 +0.0000000E+00 -8.9100652E-01
    outer loop      
      vertex   -1.1010137E+00 +4.0000000E+01 -2.5154153E+00
      vertex   -1.1010137E+00 +4.2900000E+01 -2.5154153E+00
      vertex   -5.7883716E-01 +4.2900000E+01 -2.7814776E+00
    endloop
  endfacet
  facet normal -7.0710678E-01 +0.0000000E+00 -7.0710678E-01
    outer loop      
      vertex   -1.5154153E+00 +4.0000000E+01 -2.1010137E+00
      vertex   -1.5154153E+00 +4.2900000E+01 -2.1010137E+00
      vertex   -1.1010137E+00 +4.2900000E+01 -2.5154153E+00
    endloop
  endfacet
  facet normal -8.9099435E-01 +5.2255008E-03 -4.5398430E-01
    outer loop      
      vertex   -1.7814776E+00 +4.2900000E+01 -1.5788371E+00
      vertex   -1.5154153E+00 +4.2900000E+01 -2.1010137E+00
      vertex   -1.5838923E+00 +4.0000000E+01 -2.0000000E+00
    endloop
  endfacet
  facet normal -8.2773477E-01 +0.0000000E+00 -5.6111954E-01
    outer loop      
      vertex   -1.5154153E+00 +4.2900000E+01 -2.1010137E+00
      vertex   -1.5154153E+00 +4.0000000E+01 -2.1010137E+00
      vertex   -1.5838923E+00 +4.0000000E+01 -2.0000000E+00
    endloop
  endfacet
  facet normal -9.8768834E-01 +0.0000000E+00 -1.5643446E-01
    outer loop      
      vertex   -1.8731564E+00 +4.0000000E+01 -1.0000000E+00
      vertex   -1.8731564E+00 +4.2900000E+01 -1.0000000E+00
      vertex   -1.7814776E+00 +4.2900000E+01 -1.5788371E+00
    endloop
  endfacet
  facet normal -9.8768834E-01 +0.0000000E+00 +1.5643446E-01
    outer loop      
      vertex   -1.7814776E+00 +4.0000000E+01 -4.2116283E-01
      vertex   -1.7814776E+00 +4.2900000E+01 -4.2116283E-01
      vertex   -1.8731564E+00 +4.2900000E+01 -1.0000000E+00
    endloop
  endfacet
  facet normal -9.0532242E-01 +0.0000000E+00 +4.2472498E-01
    outer loop      
      vertex   -1.7814776E+00 +4.2900000E+01 -4.2116283E-01
      vertex   -1.7814776E+00 +4.0000000E+01 -4.2116283E-01
      vertex   -1.5838923E+00 +4.0000000E+01 +0.0000000E+00
    endloop
  endfacet
  facet normal -8.9099435E-01 +5.2255008E-03 +4.5398430E-01
    outer loop      
      vertex   -1.5838923E+00 +4.0000000E+01 +0.0000000E+00
      vertex   -1.5154153E+00 +4.2900000E+01 +1.0101371E-01
      vertex   -1.7814776E+00 +4.2900000E+01 -4.2116283E-01
    endloop
  endfacet
  facet normal -7.0710678E-01 +0.0000000E+00 +7.0710678E-01
    outer loop      
      vertex   -1.1010137E+00 +4.0000000E+01 +5.1541536E-01
      vertex   -1.1010137E+00 +4.2900000E+01 +5.1541536E-01
      vertex   -1.5154153E+00 +4.2900000E+01 +1.0101371E-01
    endloop
  endfacet
  facet normal -4.5399049E-01 +0.0000000E+00 +8.9100652E-01
    outer loop      
      vertex   -5.7883716E-01 +4.0000000E+01 +7.8147760E-01
      vertex   -5.7883716E-01 +4.2900000E+01 +7.8147760E-01
      vertex   -1.1010137E+00 +4.2900000E+01 +5.1541536E-01
    endloop
  endfacet
  facet normal -1.5643446E-01 +0.0000000E+00 +9.8768834E-01
    outer loop      
      vertex   +0.0000000E+00 +4.0000000E+01 +8.7315640E-01
      vertex   +0.0000000E+00 +4.2900000E+01 +8.7315640E-01
      vertex   -5.7883716E-01 +4.2900000E+01 +7.8147760E-01
    endloop
  endfacet
  facet normal -1.5643446E-01 +0.0000000E+00 +9.8768834E-01
    outer loop      
      vertex   -5.7883716E-01 +4.2900000E+01 +7.8147760E-01
      vertex   -5.7883716E-01 +4.0000000E+01 +7.8147760E-01
      vertex   +0.0000000E+00 +4.0000000E+01 +8.7315640E-01
    endloop
  endfacet
  facet normal -4.5399049E-01 +0.0000000E+00 +8.9100652E-01
    outer loop      
      vertex   -1.1010137E+00 +4.2900000E+01 +5.1541536E-01
      vertex   -1.1010137E+00 +4.0000000E+01 +5.1541536E-01
      vertex   -5.7883716E-01 +4.0000000E+01 +7.8147760E-01
    endloop
  endfacet
  facet normal -7.0710678E-01 +0.0000000E+00 +7.0710678E-01
    outer loop      
      vertex   -1.5154153E+00 +4.2900000E+01 +1.0101371E-01
      vertex   -1.5154153E+00 +4.0000000E+01 +1.0101371E-01
      vertex   -1.1010137E+00 +4.0000000E+01 +5.1541536E-01
    endloop
  endfacet
  facet normal -8.2773477E-01 +0.0000000E+00 +5.6111954E-01
    outer loop      
      vertex   -1.5838923E+00 +4.0000000E+01 +0.0000000E+00
      vertex   -1.5154153E+00 +4.0000000E+01 +1.0101371E-01
      vertex   -1.5154153E+00 +4.2900000E+01 +1.0101371E-01
    endloop
  endfacet
  facet normal -9.8768834E-01 +0.0000000E+00 +1.5643446E-01
    outer loop      
      vertex   -1.8731564E+00 +4.2900000E+01 -1.0000000E+00
      vertex   -1.8731564E+00 +4.0000000E+01 -1.0000000E+00
      vertex   -1.7814776E+00 +4.0000000E+01 -4.2116283E-01
    endloop
  endfacet
  facet normal -9.8768834E-01 +0.0000000E+00 -1.5643446E-01
    outer loop      
      vertex   -1.7814776E+00 +4.2900000E+01 -1.5788371E+00
      vertex   -1.7814776E+00 +4.0000000E+01 -1.5788371E+00
      vertex   -1.8731564E+00 +4.0000000E+01 -1.0000000E+00
    endloop
  endfacet
  facet normal -9.0532242E-01 +0.0000000E+00 -4.2472498E-01
    outer loop      
      vertex   -1.5838923E+00 +4.0000000E+01 -2.0000000E+00
      vertex   -1.7814776E+00 +4.0000000E+01 -1.5788371E+00
      vertex   -1.7814776E+00 +4.2900000E+01 -1.5788371E+00
    endloop
  endfacet
  facet normal -7.0710678E-01 +0.0000000E+00 -7.0710678E-01
    outer loop      
      vertex   -1.1010137E+00 +4.2900000E+01 -2.5154153E+00
      vertex   -1.1010137E+00 +4.0000000E+01 -2.5154153E+00
      vertex   -1.5154153E+00 +4.0000000E+01 -2.1010137E+00
    endloop
  endfacet
  facet normal -4.5399049E-01 +0.0000000E+00 -8.9100652E-01
    outer loop      
      vertex   -5.7883716E-01 +4.2900000E+01 -2.7814776E+00
      vertex   -5.7883716E-01 +4.0000000E+01 -2.7814776E+00
      vertex   -1.1010137E+00 +4.0000000E+01 -2.5154153E+00
    endloop
  endfacet
  facet normal -1.5643446E-01 +0.0000000E+00 -9.8768834E-01
    outer loop      
      vertex   +0.0000000E+00 +4.2900000E+01 -2.8731564E+00
      vertex   +0.0000000E+00 +4.0000000E+01 -2.8731564E+00
      vertex   -5.7883716E-01 +4.0000000E+01 -2.7814776E+00
    endloop
  endfacet
  facet normal +1.5643446E-01 +0.0000000E+00 -9.8768834E-01
    outer loop      
      vertex   +5.7883716E-01 +4.2900000E+01 -2.7814776E+00
      vertex   +5.7883716E-01 +4.0000000E+01 -2.7814776E+00
      vertex   +0.0000000E+00 +4.0000000E+01 -2.8731564E+00
    endloop
  endfacet
  facet normal +4.5399049E-01 +0.0000000E+00 -8.9100652E-01
    outer loop      
      vertex   +1.1010137E+00 +4.2900000E+01 -2.5154153E+00
      vertex   +1.1010137E+00 +4.0000000E+01 -2.5154153E+00
      vertex   +5.7883716E-01 +4.0000000E+01 -2.7814776E+00
    endloop
  endfacet
  facet normal +7.0710678E-01 +0.0000000E+00 -7.0710678E-01
    outer loop      
      vertex   +1.5154153E+00 +4.2900000E+01 -2.1010137E+00
      vertex   +1.5154153E+00 +4.0000000E+01 -2.1010137E+00
      vertex   +1.1010137E+00 +4.0000000E+01 -2.5154153E+00
    endloop
  endfacet
  facet normal +8.2773477E-01 +0.0000000E+00 -5.6111954E-01
    outer loop      
      vertex   +1.5838923E+00 +4.0000000E+01 -2.0000000E+00
      vertex   +1.5154153E+00 +4.0000000E+01 -2.1010137E+00
      vertex   +1.5154153E+00 +4.2900000E+01 -2.1010137E+00
    endloop
  endfacet
  facet normal +9.8768834E-01 +0.0000000E+00 -1.5643446E-01
    outer loop      
      vertex   +1.8731564E+00 +4.2900000E+01 -1.0000000E+00
      vertex   +1.8731564E+00 +4.0000000E+01 -1.0000000E+00
      vertex   +1.7814776E+00 +4.0000000E+01 -1.5788371E+00
    endloop
  endfacet
  facet normal +9.8768834E-01 +0.0000000E+00 +1.5643446E-01
    outer loop      
      vertex   +1.7814776E+00 +4.2900000E+01 -4.2116283E-01
      vertex   +1.7814776E+00 +4.0000000E+01 -4.2116283E-01
      vertex   +1.8731564E+00 +4.0000000E+01 -1.0000000E+00
    endloop
  endfacet
  facet normal +9.0532242E-01 +0.0000000E+00 +4.2472498E-01
    outer loop      
      vertex   +1.5838923E+00 +4.0000000E+01 +0.0000000E+00
      vertex   +1.7814776E+00 +4.0000000E+01 -4.2116283E-01
      vertex   +1.7814776E+00 +4.2900000E+01 -4.2116283E-01
    endloop
  endfacet
  facet normal +7.0710678E-01 +0.0000000E+00 +7.0710678E-01
    outer loop      
      vertex   +1.1010137E+00 +4.2900000E+01 +5.1541536E-01
      vertex   +1.1010137E+00 +4.0000000E+01 +5.1541536E-01
      vertex   +1.5154153E+00 +4.0000000E+01 +1.0101371E-01
    endloop
  endfacet
  facet normal +4.5399049E-01 +0.0000000E+00 +8.9100652E-01
    outer loop      
      vertex   +5.7883716E-01 +4.2900000E+01 +7.8147760E-01
      vertex   +5.7883716E-01 +4.0000000E+01 +7.8147760E-01
      vertex   +1.1010137E+00 +4.0000000E+01 +5.1541536E-01
    endloop
  endfacet
  facet normal +1.5643446E-01 +0.0000000E+00 +9.8768834E-01
    outer loop      
      vertex   +0.0000000E+00 +4.2900000E+01 +8.7315640E-01
      vertex   +0.0000000E+00 +4.0000000E+01 +8.7315640E-01
      vertex   +5.7883716E-01 +4.0000000E+01 +7.8147760E-01
    endloop
  endfacet
  facet normal +0.0000000E+00 -1.0000000E+00 +0.0000000E+00
    outer loop      
      vertex   +5.7883716E-01 +4.0000000E+01 +7.8147760E-01
      vertex   -5.7883716E-01 +4.0000000E+01 +7.8147760E-01
      vertex   -1.1010137E+00 +4.0000000E+01 +5.1541536E-01
    endloop
  endfacet
  facet normal +0.0000000E+00 -1.0000000E-00 +0.0000000E+00
    outer loop      
      vertex   +5.7883716E-01 +4.0000000E+01 +7.8147760E-01
      vertex   +0.0000000E+00 +4.0000000E+01 +8.7315640E-01
      vertex   -5.7883716E-01 +4.0000000E+01 +7.8147760E-01
    endloop
  endfacet
  facet normal +0.0000000E+00 -1.0000000E+00 +0.0000000E+00
    outer loop      
      vertex   -1.5154153E+00 +4.0000000E+01 +1.0101371E-01
      vertex   +1.5154153E+00 +4.0000000E+01 +1.0101371E-01
      vertex   +1.1010137E+00 +4.0000000E+01 +5.1541536E-01
    endloop
  endfacet
  facet normal +0.0000000E+00 -1.0000000E+00 +0.0000000E+00
    outer loop      
      vertex   +1.1010137E+00 +4.0000000E+01 +5.1541536E-01
      vertex   +5.7883716E-01 +4.0000000E+01 +7.8147760E-01
      vertex   -1.5154153E+00 +4.0000000E+01 +1.0101371E-01
    endloop
  endfacet
  facet normal +0.0000000E+00 -1.0000000E+00 +0.0000000E+00
    outer loop      
      vertex   -1.1010137E+00 +4.0000000E+01 +5.1541536E-01
      vertex   -1.5154153E+00 +4.0000000E+01 +1.0101371E-01
      vertex   +5.7883716E-01 +4.0000000E+01 +7.8147760E-01
    endloop
  endfacet
  facet normal +0.0000000E+00 -1.0000000E+00 +0.0000000E+00
    outer loop      
      vertex   -1.5838923E+00 +4.0000000E+01 +0.0000000E+00
      vertex   +1.5838923E+00 +4.0000000E+01 +0.0000000E+00
      vertex   +1.5154153E+00 +4.0000000E+01 +1.0101371E-01
    endloop
  endfacet
  facet normal +0.0000000E+00 -1.0000000E+00 +0.0000000E+00
    outer loop      
      vertex   -1.5154153E+00 +4.0000000E+01 +1.0101371E-01
      vertex   -1.5838923E+00 +4.0000000E+01 +0.0000000E+00
      vertex   +1.5154153E+00 +4.0000000E+01 +1.0101371E-01
    endloop
  endfacet
  facet normal +0.0000000E+00 -1.0000000E-00 +0.0000000E+00
    outer loop      
      vertex   +0.0000000E+00 +4.0000000E+01 -2.8731564E+00
      vertex   -1.5154153E+00 +4.0000000E+01 -2.1010137E+00
      vertex   -1.1010137E+00 +4.0000000E+01 -2.5154153E+00
    endloop
  endfacet
  facet normal +0.0000000E+00 -1.0000000E-00 +0.0000000E+00
    outer loop      
      vertex   -1.5154153E+00 +4.0000000E+01 -2.1010137E+00
      vertex   +5.7883716E-01 +4.0000000E+01 -2.7814776E+00
      vertex   +1.1010137E+00 +4.0000000E+01 -2.5154153E+00
    endloop
  endfacet
  facet normal +0.0000000E+00 -1.0000000E+00 +0.0000000E+00
    outer loop      
      vertex   -1.1010137E+00 +4.0000000E+01 -2.5154153E+00
      vertex   -5.7883716E-01 +4.0000000E+01 -2.7814776E+00
      vertex   +0.0000000E+00 +4.0000000E+01 -2.8731564E+00
    endloop
  endfacet
  facet normal +0.0000000E+00 -1.0000000E+00 +0.0000000E+00
    outer loop      
      vertex   +0.0000000E+00 +4.0000000E+01 -2.8731564E+00
      vertex   +5.7883716E-01 +4.0000000E+01 -2.7814776E+00
      vertex   -1.5154153E+00 +4.0000000E+01 -2.1010137E+00
    endloop
  endfacet
  facet normal +0.0000000E+00 -1.0000000E-00 +0.0000000E+00
    outer loop      
      vertex   +1.1010137E+00 +4.0000000E+01 -2.5154153E+00
      vertex   +1.5154153E+00 +4.0000000E+01 -2.1010137E+00
      vertex   -1.5154153E+00 +4.0000000E+01 -2.1010137E+00
    endloop
  endfacet
  facet normal +0.0000000E+00 -1.0000000E+00 +0.0000000E+00
    outer loop      
      vertex   +1.5838923E+00 +4.0000000E+01 -2.0000000E+00
      vertex   -1.5838923E+00 +4.0000000E+01 -2.0000000E+00
      vertex   -1.5154153E+00 +4.0000000E+01 -2.1010137E+00
    endloop
  endfacet
  facet normal +0.0000000E+00 -1.0000000E+00 +0.0000000E+00
    outer loop      
      vertex   +1.5154153E+00 +4.0000000E+01 -2.1010137E+00
      vertex   +1.5838923E+00 +4.0000000E+01 -2.0000000E+00
      vertex   -1.5154153E+00 +4.0000000E+01 -2.1010137E+00
    endloop
  endfacet
  facet normal +1.5570393E-15 +1.0000000E+00 +0.0000000E+00
    outer loop      
      vertex   +1.1000000E+01 +4.0000000E+01 +0.0000000E+00
      vertex   +1.1000000E+01 +4.0000000E+01 -2.0000000E+00
      vertex   +1.8731564E+00 +4.0000000E+01 -1.0000000E+00
    endloop
  endfacet
  facet normal +1.5304798E-15 +1.0000000E+00 +2.4240419E-16
    outer loop      
      vertex   +1.8731564E+00 +4.0000000E+01 -1.0000000E+00
      vertex   +1.7814776E+00 +4.0000000E+01 -4.2116283E-01
      vertex   +1.1000000E+01 +4.0000000E+01 +0.0000000E+00
    endloop
  endfacet
  facet normal +1.5092069E-15 +1.0000000E-00 -7.0803269E-16
    outer loop      
      vertex   +1.1000000E+01 +4.0000000E+01 -2.0000000E+00
      vertex   +1.5838923E+00 +4.0000000E+01 -2.0000000E+00
      vertex   +1.7814776E+00 +4.0000000E+01 -1.5788371E+00
    endloop
  endfacet
  facet normal +1.5304798E-15 +1.0000000E+00 -2.4240419E-16
    outer loop      
      vertex   +1.7814776E+00 +4.0000000E+01 -1.5788371E+00
      vertex   +1.8731564E+00 +4.0000000E+01 -1.0000000E+00
      vertex   +1.1000000E+01 +4.0000000E+01 -2.0000000E+00
    endloop
  endfacet
  facet normal +1.5092069E-15 +1.0000000E-00 +7.0803269E-16
    outer loop      
      vertex   +1.7814776E+00 +4.0000000E+01 -4.2116283E-01
      vertex   +1.5838923E+00 +4.0000000E+01 +0.0000000E+00
      vertex   +1.1000000E+01 +4.0000000E+01 +0.0000000E+00
    endloop
  endfacet
  facet normal +1.5304798E-15 +1.0000000E+00 -2.4240419E-16
    outer loop      
      vertex   -1.1000000E+01 +4.0000000E+01 +0.0000000E+00
      vertex   -1.7814776E+00 +4.0000000E+01 -4.2116283E-01
      vertex   -1.8731564E+00 +4.0000000E+01 -1.0000000E+00
    endloop
  endfacet
  facet normal +1.5304798E-15 +1.0000000E+00 +2.4240419E-16
    outer loop      
      vertex   -1.1000000E+01 +4.0000000E+01 -2.0000000E+00
      vertex   -1.8731564E+00 +4.0000000E+01 -1.0000000E+00
      vertex   -1.7814776E+00 +4.0000000E+01 -1.5788371E+00
    endloop
  endfacet
  facet normal +1.5092069E-15 +1.0000000E+00 -7.0803269E-16
    outer loop      
      vertex   -1.1000000E+01 +4.0000000E+01 +0.0000000E+00
      vertex   -1.5838923E+00 +4.0000000E+01 +0.0000000E+00
      vertex   -1.7814776E+00 +4.0000000E+01 -4.2116283E-01
    endloop
  endfacet
  facet normal +1.5570393E-15 +1.0000000E-00 +0.0000000E+00
    outer loop      
      vertex   -1.8731564E+00 +4.0000000E+01 -1.0000000E+00
      vertex   -1.1000000E+01 +4.0000000E+01 -2.0000000E+00
      vertex   -1.1000000E+01 +4.0000000E+01 +0.0000000E+00
    endloop
  endfacet
  facet normal +1.5092069E-15 +1.0000000E+00 +7.0803269E-16
    outer loop      
      vertex   -1.7814776E+00 +4.0000000E+01 -1.5788371E+00
      vertex   -1.5838923E+00 +4.0000000E+01 -2.0000000E+00
      vertex   -1.1000000E+01 +4.0000000E+01 -2.0000000E+00
    endloop
  endfacet
  facet normal -1.0000000E+00 +2.3536728E-15 +0.0000000E+00
    outer loop      
      vertex   -1.1000000E+01 +0.0000000E+00 -2.0000000E+00
      vertex   -1.1000000E+01 +0.0000000E+00 +0.0000000E+00
      vertex   -1.1000000E+01 +4.0000000E+01 +0.0000000E+00
    endloop
  endfacet
  facet normal -1.0000000E+00 +2.3536728E-15 +0.0000000E+00
    outer loop      
      vertex   -1.1000000E+01 +4.0000000E+01 +0.0000000E+00
      vertex   -1.1000000E+01 +4.0000000E+01 -2.0000000E+00
      vertex   -1.1000000E+01 +0.0000000E+00 -2.0000000E+00
    endloop
  endfacet
  facet normal +9.7437006E-01 -2.2495105E-01 +0.0000000E+00
    outer loop      
      vertex   -8.3005873E+00 +1.1692440E+01 -2.0000000E+00
      vertex   -8.3005873E+00 +1.1692440E+01 +0.0000000E+00
      vertex   -1.1000000E+01 +0.0000000E+00 +0.0000000E+00
    endloop
  endfacet
  facet normal +9.7437006E-01 -2.2495105E-01 +0.0000000E+00
    outer loop      
      vertex   -1.1000000E+01 +0.0000000E+00 +0.0000000E+00
      vertex   -1.1000000E+01 +0.0000000E+00 -2.0000000E+00
      vertex   -8.3005873E+00 +1.1692440E+01 -2.0000000E+00
    endloop
  endfacet
  facet normal +0.0000000E+00 +0.0000000E+00 -1.0000000E+00
    outer loop      
      vertex   -8.3005873E+00 +1.1692440E+01 -2.0000000E+00
      vertex   -1.5838923E+00 +4.0000000E+01 -2.0000000E+00
      vertex   +1.5838923E+00 +4.0000000E+01 -2.0000000E+00
    endloop
  endfacet
  facet normal +0.0000000E+00 +0.0000000E+00 -1.0000000E+00
    outer loop      
      vertex   +1.5838923E+00 +4.0000000E+01 -2.0000000E+00
      vertex   +8.3005873E+00 +1.1692440E+01 -2.0000000E+00
      vertex   -8.3005873E+00 +1.1692440E+01 -2.0000000E+00
    endloop
  endfacet
  facet normal +0.0000000E+00 +0.0000000E+00 -1.0000000E+00
    outer loop      
      vertex   -8.3005873E+00 +1.1692440E+01 -2.0000000E+00
      vertex   -1.1000000E+01 +4.0000000E+01 -2.0000000E+00
      vertex   -1.5838923E+00 +4.0000000E+01 -2.0000000E+00
    endloop
  endfacet
  facet normal +0.0000000E+00 +0.0000000E+00 -1.0000000E+00
    outer loop      
      vertex   +1.1000000E+01 +4.0000000E+01 -2.0000000E+00
      vertex   +1.1000000E+01 +0.0000000E+00 -2.0000000E+00
      vertex   +8.3005873E+00 +1.1692440E+01 -2.0000000E+00
    endloop
  endfacet
  facet normal +0.0000000E+00 +0.0000000E+00 -1.0000000E+00
    outer loop      
      vertex   +1.5838923E+00 +4.0000000E+01 -2.0000000E+00
      vertex   +1.1000000E+01 +4.0000000E+01 -2.0000000E+00
      vertex   +8.3005873E+00 +1.1692440E+01 -2.0000000E+00
    endloop
  endfacet
  facet normal +0.0000000E+00 +0.0000000E+00 -1.0000000E+00
    outer loop      
      vertex   -8.3005873E+00 +1.1692440E+01 -2.0000000E+00
      vertex   -1.1000000E+01 +0.0000000E+00 -2.0000000E+00
      vertex   -1.1000000E+01 +4.0000000E+01 -2.0000000E+00
    endloop
  endfacet
  facet normal +0.0000000E+00 +0.0000000E+00 +1.0000000E+00
    outer loop      
      vertex   -8.3005873E+00 +1.1692440E+01 +0.0000000E+00
      vertex   +8.3005873E+00 +1.1692440E+01 +0.0000000E+00
      vertex   +1.5838923E+00 +4.0000000E+01 +0.0000000E+00
    endloop
  endfacet
  facet normal +0.0000000E+00 +0.0000000E+00 +1.0000000E+00
    outer loop      
      vertex   +8.3005873E+00 +1.1692440E+01 +0.0000000E+00
      vertex   +1.1000000E+01 +4.0000000E+01 +0.0000000E+00
      vertex   +1.5838923E+00 +4.0000000E+01 +0.0000000E+00
    endloop
  endfacet
  facet normal +0.0000000E+00 +0.0000000E+00 +1.0000000E+00
    outer loop      
      vertex   +1.5838923E+00 +4.0000000E+01 +0.0000000E+00
      vertex   -1.5838923E+00 +4.0000000E+01 +0.0000000E+00
      vertex   -8.3005873E+00 +1.1692440E+01 +0.0000000E+00
    endloop
  endfacet
  facet normal +0.0000000E+00 +0.0000000E+00 +1.0000000E+00
    outer loop      
      vertex   -1.5838923E+00 +4.0000000E+01 +0.0000000E+00
      vertex   -1.1000000E+01 +4.0000000E+01 +0.0000000E+00
      vertex   -8.3005873E+00 +1.1692440E+01 +0.0000000E+00
    endloop
  endfacet
  facet normal +0.0000000E+00 +0.0000000E+00 +1.0000000E+00
    outer loop      
      vertex   -1.1000000E+01 +4.0000000E+01 +0.0000000E+00
      vertex   -1.1000000E+01 +0.0000000E+00 +0.0000000E+00
      vertex   -8.3005873E+00 +1.1692440E+01 +0.0000000E+00
    endloop
  endfacet
  facet normal +0.0000000E+00 +0.0000000E+00 +1.0000000E+00
    outer loop      
      vertex   +8.3005873E+00 +1.1692440E+01 +0.0000000E+00
      vertex   +1.1000000E+01 +0.0000000E+00 +0.0000000E+00
      vertex   +1.1000000E+01 +4.0000000E+01 +0.0000000E+00
    endloop
  endfacet
  facet normal -1.3910243E-15 -1.0000000E+00 +0.0000000E+00
    outer loop      
      vertex   +8.3005873E+00 +1.1692440E+01 -2.0000000E+00
      vertex   +8.3005873E+00 +1.1692440E+01 +0.0000000E+00
      vertex   -8.3005873E+00 +1.1692440E+01 +0.0000000E+00
    endloop
  endfacet
  facet normal -1.3910243E-15 -1.0000000E+00 +0.0000000E+00
    outer loop      
      vertex   -8.3005873E+00 +1.1692440E+01 +0.0000000E+00
      vertex   -8.3005873E+00 +1.1692440E+01 -2.0000000E+00
      vertex   +8.3005873E+00 +1.1692440E+01 -2.0000000E+00
    endloop
  endfacet
  facet normal -9.7437006E-01 -2.2495105E-01 +0.0000000E+00
    outer loop      
      vertex   +1.1000000E+01 +0.0000000E+00 -2.0000000E+00
      vertex   +1.1000000E+01 +0.0000000E+00 +0.0000000E+00
      vertex   +8.3005873E+00 +1.1692440E+01 +0.0000000E+00
    endloop
  endfacet
  facet normal -9.7437006E-01 -2.2495105E-01 +0.0000000E+00
    outer loop      
      vertex   +8.3005873E+00 +1.1692440E+01 +0.0000000E+00
      vertex   +8.3005873E+00 +1.1692440E+01 -2.0000000E+00
      vertex   +1.1000000E+01 +0.0000000E+00 -2.0000000E+00
    endloop
  endfacet
  facet normal +1.0000000E+00 +0.0000000E+00 +0.0000000E+00
    outer loop      
      vertex   +1.1000000E+01 +4.0000000E+01 -2.0000000E+00
      vertex   +1.1000000E+01 +4.0000000E+01 +0.0000000E+00
      vertex   +1.1000000E+01 +0.0000000E+00 +0.0000000E+00
    endloop
  endfacet
  facet normal +1.0000000E+00 +0.0000000E+00 +0.0000000E+00
    outer loop      
      vertex   +1.1000000E+01 +0.0000000E+00 +0.0000000E+00
      vertex   +1.1000000E+01 +0.0000000E+00 -2.0000000E+00
      vertex   +1.1000000E+01 +4.0000000E+01 -2.0000000E+00
    endloop
  endfacet
endsolid
